# Wavefront OBJ file written 2026-05-18T08:54:24
o outlet_edgeMesh

# points : 105
# lines  : 105

# <points count="105">
v 3.5 0 100
v 3.49374 0.209314 100
v -3.49843 0.104704 100
v -3.49843 -0.104704 100
v 3.49374 -0.209314 100
v -3.48591 -0.313738 100
v 3.47496 -0.41788 100
v -3.46091 -0.521648 100
v 3.44375 -0.624949 100
v -3.42352 -0.727691 100
v 3.40021 -0.829781 100
v -3.37387 -0.931129 100
v 3.34451 -1.03164 100
v -3.31215 -1.13123 100
v 3.27682 -1.22981 100
v -3.23856 -1.32729 100
v 3.19741 -1.42358 100
v -3.15339 -1.51859 100
v 3.10655 -1.61225 100
v -3.05693 -1.70446 100
v 3.00457 -1.79515 100
v -2.94952 -1.88423 100
v 2.89184 -1.97162 100
v -2.83156 -2.05725 100
v 2.76875 -2.14104 100
v -2.70346 -2.2229 100
v 2.63575 -2.30279 100
v -2.56568 -2.3806 100
v 2.49332 -2.45629 100
v -2.41872 -2.52978 100
v 2.34196 -2.60101 100
v -2.2631 -2.6699 100
v 2.18221 -2.73641 100
v -2.09938 -2.80047 100
v 2.01466 -2.86202 100
v -1.92814 -2.92101 100
v 1.83989 -2.97738 100
v -1.75 -3.03109 100
v 1.65854 -3.08208 100
v -1.5656 -3.13032 100
v 1.47125 -3.17576 100
v -1.37559 -3.21835 100
v 1.27869 -3.25806 100
v -1.18066 -3.29485 100
v 1.08156 -3.3287 100
v -0.981496 -3.35956 100
v 0.880554 -3.38742 100
v -0.778823 -3.41225 100
v 0.676396 -3.43402 100
v -0.573363 -3.45272 100
v 0.469816 -3.46832 100
v -0.36585 -3.48083 100
v 0.261555 -3.49021 100
v -0.157027 -3.49648 100
v 0.0523579 -3.49961 100
v -3.48591 0.313738 100
v 3.47496 0.41788 100
v -3.46091 0.521648 100
v 3.44375 0.624949 100
v -3.42352 0.727691 100
v 3.40021 0.829781 100
v -3.37387 0.931129 100
v 3.34451 1.03164 100
v 3.27682 1.22981 100
v 3.19741 1.42358 100
v 3.10655 1.61225 100
v 3.00457 1.79515 100
v -3.31215 1.13123 100
v 2.89184 1.97162 100
v 2.76875 2.14104 100
v 2.63575 2.30279 100
v 2.49332 2.45629 100
v 2.34196 2.60101 100
v 2.18221 2.73641 100
v 2.01466 2.86202 100
v 1.83989 2.97738 100
v 1.65854 3.08208 100
v 1.47125 3.17576 100
v 1.27869 3.25806 100
v 1.08156 3.3287 100
v 0.880554 3.38742 100
v 0.676396 3.43402 100
v 0.469816 3.46832 100
v 0.261555 3.49021 100
v 0.0523579 3.49961 100
v -0.157027 3.49648 100
v -0.36585 3.48083 100
v -0.573363 3.45272 100
v -0.778823 3.41225 100
v -0.981496 3.35956 100
v -1.18066 3.29485 100
v -1.37559 3.21835 100
v -1.5656 3.13032 100
v -1.75 3.03109 100
v -1.92814 2.92101 100
v -2.09938 2.80047 100
v -2.2631 2.6699 100
v -2.41872 2.52978 100
v -2.56568 2.3806 100
v -2.70346 2.2229 100
v -2.83156 2.05725 100
v -2.94952 1.88423 100
v -3.05693 1.70446 100
v -3.15339 1.51859 100
v -3.23856 1.32729 100
# </points>

# <edges count="105">
l 1 2
l 3 4
l 5 1
l 4 6
l 7 5
l 6 8
l 9 7
l 8 10
l 11 9
l 10 12
l 13 11
l 12 14
l 15 13
l 14 16
l 17 15
l 16 18
l 19 17
l 18 20
l 21 19
l 20 22
l 23 21
l 22 24
l 25 23
l 24 26
l 27 25
l 26 28
l 29 27
l 28 30
l 31 29
l 30 32
l 33 31
l 32 34
l 35 33
l 34 36
l 37 35
l 36 38
l 39 37
l 38 40
l 41 39
l 40 42
l 43 41
l 42 44
l 45 43
l 44 46
l 47 45
l 46 48
l 49 47
l 48 50
l 51 49
l 50 52
l 53 51
l 52 54
l 54 55
l 55 53
l 56 3
l 2 57
l 58 56
l 57 59
l 60 58
l 59 61
l 62 60
l 61 63
l 63 64
l 64 65
l 65 66
l 66 67
l 68 62
l 67 69
l 69 70
l 70 71
l 71 72
l 72 73
l 73 74
l 74 75
l 75 76
l 76 77
l 77 78
l 78 79
l 79 80
l 80 81
l 81 82
l 82 83
l 83 84
l 84 85
l 85 86
l 86 87
l 87 88
l 88 89
l 89 90
l 90 91
l 91 92
l 92 93
l 93 94
l 94 95
l 95 96
l 96 97
l 97 98
l 98 99
l 99 100
l 100 101
l 101 102
l 102 103
l 103 104
l 104 105
l 105 68
# </edges>
