v 3.5 0 100
v 3.49374 0.209314 100
l 1 2
v -3.49843 0.104704 100
v -3.49843 -0.104704 100
l 3 4
v 3.49374 -0.209314 100
v 3.5 0 100
l 5 6
v -3.49843 -0.104704 100
v -3.48591 -0.313738 100
l 7 8
v 3.47496 -0.41788 100
v 3.49374 -0.209314 100
l 9 10
v -3.48591 -0.313738 100
v -3.46091 -0.521648 100
l 11 12
v 3.44375 -0.624949 100
v 3.47496 -0.41788 100
l 13 14
v -3.46091 -0.521648 100
v -3.42352 -0.727691 100
l 15 16
v 3.40021 -0.829781 100
v 3.44375 -0.624949 100
l 17 18
v -3.42352 -0.727691 100
v -3.37387 -0.931129 100
l 19 20
v 3.34451 -1.03164 100
v 3.40021 -0.829781 100
l 21 22
v -3.37387 -0.931129 100
v -3.31215 -1.13123 100
l 23 24
v 3.27682 -1.22981 100
v 3.34451 -1.03164 100
l 25 26
v -3.31215 -1.13123 100
v -3.23856 -1.32729 100
l 27 28
v 3.19741 -1.42358 100
v 3.27682 -1.22981 100
l 29 30
v -3.23856 -1.32729 100
v -3.15339 -1.51859 100
l 31 32
v 3.10655 -1.61225 100
v 3.19741 -1.42358 100
l 33 34
v -3.15339 -1.51859 100
v -3.05693 -1.70446 100
l 35 36
v 3.00457 -1.79515 100
v 3.10655 -1.61225 100
l 37 38
v -3.05693 -1.70446 100
v -2.94952 -1.88423 100
l 39 40
v 2.89184 -1.97162 100
v 3.00457 -1.79515 100
l 41 42
v -2.94952 -1.88423 100
v -2.83156 -2.05725 100
l 43 44
v 2.76875 -2.14104 100
v 2.89184 -1.97162 100
l 45 46
v -2.83156 -2.05725 100
v -2.70346 -2.2229 100
l 47 48
v 2.63575 -2.30279 100
v 2.76875 -2.14104 100
l 49 50
v -2.70346 -2.2229 100
v -2.56568 -2.3806 100
l 51 52
v 2.49332 -2.45629 100
v 2.63575 -2.30279 100
l 53 54
v -2.56568 -2.3806 100
v -2.41872 -2.52978 100
l 55 56
v 2.34196 -2.60101 100
v 2.49332 -2.45629 100
l 57 58
v -2.41872 -2.52978 100
v -2.2631 -2.6699 100
l 59 60
v 2.18221 -2.73641 100
v 2.34196 -2.60101 100
l 61 62
v -2.2631 -2.6699 100
v -2.09938 -2.80047 100
l 63 64
v 2.01466 -2.86202 100
v 2.18221 -2.73641 100
l 65 66
v -2.09938 -2.80047 100
v -1.92814 -2.92101 100
l 67 68
v 1.83989 -2.97738 100
v 2.01466 -2.86202 100
l 69 70
v -1.92814 -2.92101 100
v -1.75 -3.03109 100
l 71 72
v 1.65854 -3.08208 100
v 1.83989 -2.97738 100
l 73 74
v -1.75 -3.03109 100
v -1.5656 -3.13032 100
l 75 76
v 1.47125 -3.17576 100
v 1.65854 -3.08208 100
l 77 78
v -1.5656 -3.13032 100
v -1.37559 -3.21835 100
l 79 80
v 1.27869 -3.25806 100
v 1.47125 -3.17576 100
l 81 82
v -1.37559 -3.21835 100
v -1.18066 -3.29485 100
l 83 84
v 1.08156 -3.3287 100
v 1.27869 -3.25806 100
l 85 86
v -1.18066 -3.29485 100
v -0.981496 -3.35956 100
l 87 88
v 0.880554 -3.38742 100
v 1.08156 -3.3287 100
l 89 90
v -0.981496 -3.35956 100
v -0.778823 -3.41225 100
l 91 92
v 0.676396 -3.43402 100
v 0.880554 -3.38742 100
l 93 94
v -0.778823 -3.41225 100
v -0.573363 -3.45272 100
l 95 96
v 0.469816 -3.46832 100
v 0.676396 -3.43402 100
l 97 98
v -0.573363 -3.45272 100
v -0.36585 -3.48083 100
l 99 100
v 0.261555 -3.49021 100
v 0.469816 -3.46832 100
l 101 102
v -0.36585 -3.48083 100
v -0.157027 -3.49648 100
l 103 104
v -0.157027 -3.49648 100
v 0.0523579 -3.49961 100
l 105 106
v 0.0523579 -3.49961 100
v 0.261555 -3.49021 100
l 107 108
v -3.48591 0.313738 100
v -3.49843 0.104704 100
l 109 110
v 3.49374 0.209314 100
v 3.47496 0.41788 100
l 111 112
v -3.46091 0.521648 100
v -3.48591 0.313738 100
l 113 114
v 3.47496 0.41788 100
v 3.44375 0.624949 100
l 115 116
v -3.42352 0.727691 100
v -3.46091 0.521648 100
l 117 118
v 3.44375 0.624949 100
v 3.40021 0.829781 100
l 119 120
v -3.37387 0.931129 100
v -3.42352 0.727691 100
l 121 122
v 3.40021 0.829781 100
v 3.34451 1.03164 100
l 123 124
v 3.34451 1.03164 100
v 3.27682 1.22981 100
l 125 126
v 3.27682 1.22981 100
v 3.19741 1.42358 100
l 127 128
v 3.19741 1.42358 100
v 3.10655 1.61225 100
l 129 130
v 3.10655 1.61225 100
v 3.00457 1.79515 100
l 131 132
v -3.31215 1.13123 100
v -3.37387 0.931129 100
l 133 134
v 3.00457 1.79515 100
v 2.89184 1.97162 100
l 135 136
v 2.89184 1.97162 100
v 2.76875 2.14104 100
l 137 138
v 2.76875 2.14104 100
v 2.63575 2.30279 100
l 139 140
v 2.63575 2.30279 100
v 2.49332 2.45629 100
l 141 142
v 2.49332 2.45629 100
v 2.34196 2.60101 100
l 143 144
v 2.34196 2.60101 100
v 2.18221 2.73641 100
l 145 146
v 2.18221 2.73641 100
v 2.01466 2.86202 100
l 147 148
v 2.01466 2.86202 100
v 1.83989 2.97738 100
l 149 150
v 1.83989 2.97738 100
v 1.65854 3.08208 100
l 151 152
v 1.65854 3.08208 100
v 1.47125 3.17576 100
l 153 154
v 1.47125 3.17576 100
v 1.27869 3.25806 100
l 155 156
v 1.27869 3.25806 100
v 1.08156 3.3287 100
l 157 158
v 1.08156 3.3287 100
v 0.880554 3.38742 100
l 159 160
v 0.880554 3.38742 100
v 0.676396 3.43402 100
l 161 162
v 0.676396 3.43402 100
v 0.469816 3.46832 100
l 163 164
v 0.469816 3.46832 100
v 0.261555 3.49021 100
l 165 166
v 0.261555 3.49021 100
v 0.0523579 3.49961 100
l 167 168
v 0.0523579 3.49961 100
v -0.157027 3.49648 100
l 169 170
v -0.157027 3.49648 100
v -0.36585 3.48083 100
l 171 172
v -0.36585 3.48083 100
v -0.573363 3.45272 100
l 173 174
v -0.573363 3.45272 100
v -0.778823 3.41225 100
l 175 176
v -0.778823 3.41225 100
v -0.981496 3.35956 100
l 177 178
v -0.981496 3.35956 100
v -1.18066 3.29485 100
l 179 180
v -1.18066 3.29485 100
v -1.37559 3.21835 100
l 181 182
v -1.37559 3.21835 100
v -1.5656 3.13032 100
l 183 184
v -1.5656 3.13032 100
v -1.75 3.03109 100
l 185 186
v -1.75 3.03109 100
v -1.92814 2.92101 100
l 187 188
v -1.92814 2.92101 100
v -2.09938 2.80047 100
l 189 190
v -2.09938 2.80047 100
v -2.2631 2.6699 100
l 191 192
v -2.2631 2.6699 100
v -2.41872 2.52978 100
l 193 194
v -2.41872 2.52978 100
v -2.56568 2.3806 100
l 195 196
v -2.56568 2.3806 100
v -2.70346 2.2229 100
l 197 198
v -2.70346 2.2229 100
v -2.83156 2.05725 100
l 199 200
v -2.83156 2.05725 100
v -2.94952 1.88423 100
l 201 202
v -2.94952 1.88423 100
v -3.05693 1.70446 100
l 203 204
v -3.05693 1.70446 100
v -3.15339 1.51859 100
l 205 206
v -3.15339 1.51859 100
v -3.23856 1.32729 100
l 207 208
v -3.23856 1.32729 100
v -3.31215 1.13123 100
l 209 210
