# Wavefront OBJ file written 2026-05-16T14:02:14
o inlet_edgeMesh

# points : 210
# lines  : 210

# <points count="210">
v -3.5 -4.28626e-16 3
v -3.49374 0.209314 3
v -3.49374 0.209314 2
v -3.5 -4.28626e-16 2
v -3.49374 -0.209314 3
v -3.49374 -0.209314 2
v -3.47496 -0.41788 3
v -3.47496 -0.41788 2
v -3.44375 -0.624949 3
v -3.44375 -0.624949 2
v -3.40021 -0.829781 3
v -3.40021 -0.829781 2
v -3.34451 -1.03164 3
v -3.34451 -1.03164 2
v -3.27682 -1.22981 3
v -3.27682 -1.22981 2
v -3.19741 -1.42358 3
v -3.19741 -1.42358 2
v -3.10655 -1.61225 3
v -3.10655 -1.61225 2
v -3.00457 -1.79515 3
v -3.00457 -1.79515 2
v -2.89184 -1.97162 3
v -2.89184 -1.97162 2
v -2.76875 -2.14104 3
v -2.76875 -2.14104 2
v -2.63575 -2.30279 3
v -2.63575 -2.30279 2
v -2.49332 -2.45629 3
v -2.49332 -2.45629 2
v -2.34196 -2.60101 3
v -2.34196 -2.60101 2
v -2.18221 -2.73641 3
v -2.18221 -2.73641 2
v -2.01466 -2.86202 3
v -2.01466 -2.86202 2
v -1.83989 -2.97738 3
v -1.83989 -2.97738 2
v -1.65854 -3.08208 3
v -1.65854 -3.08208 2
v -1.47125 -3.17576 3
v -1.47125 -3.17576 2
v -1.27869 -3.25806 3
v -1.27869 -3.25806 2
v -1.08156 -3.3287 3
v -1.08156 -3.3287 2
v -0.880554 -3.38742 3
v -0.880554 -3.38742 2
v -0.676396 -3.43402 3
v -0.676396 -3.43402 2
v -0.469816 -3.46832 3
v -0.469816 -3.46832 2
v -0.261555 -3.49021 3
v -0.261555 -3.49021 2
v -0.0523579 -3.49961 3
v -0.0523579 -3.49961 2
v 0.157027 -3.49648 3
v 0.157027 -3.49648 2
v 0.36585 -3.48083 3
v 0.36585 -3.48083 2
v 0.573363 -3.45272 3
v 0.573363 -3.45272 2
v 0.778823 -3.41225 3
v 0.778823 -3.41225 2
v 0.981496 -3.35956 3
v 0.981496 -3.35956 2
v 1.18066 -3.29485 3
v 1.18066 -3.29485 2
v 1.37559 -3.21835 3
v 1.37559 -3.21835 2
v 1.5656 -3.13032 3
v 1.5656 -3.13032 2
v 1.75 -3.03109 3
v 1.75 -3.03109 2
v 1.92814 -2.92101 3
v 1.92814 -2.92101 2
v 2.09938 -2.80047 3
v 2.09938 -2.80047 2
v 2.2631 -2.6699 3
v 2.2631 -2.6699 2
v 2.41872 -2.52978 3
v 2.41872 -2.52978 2
v 2.56568 -2.3806 3
v 2.56568 -2.3806 2
v 2.70346 -2.2229 3
v 2.70346 -2.2229 2
v 2.83156 -2.05725 3
v 2.83156 -2.05725 2
v 2.94952 -1.88423 3
v 2.94952 -1.88423 2
v 3.05693 -1.70446 3
v 3.05693 -1.70446 2
v 3.15339 -1.51859 3
v 3.15339 -1.51859 2
v 3.23856 -1.32729 3
v 3.23856 -1.32729 2
v 3.31215 -1.13123 3
v 3.31215 -1.13123 2
v 3.37387 -0.931129 3
v 3.37387 -0.931129 2
v 3.42352 -0.727691 3
v 3.42352 -0.727691 2
v 3.46091 -0.521648 3
v 3.46091 -0.521648 2
v 3.48591 -0.313738 3
v 3.48591 -0.313738 2
v 3.49843 -0.104704 3
v 3.49843 -0.104704 2
v 3.49843 0.104704 3
v 3.49843 0.104704 2
v 3.48591 0.313738 3
v 3.48591 0.313738 2
v 3.46091 0.521648 3
v 3.46091 0.521648 2
v 3.42352 0.727691 3
v 3.42352 0.727691 2
v 3.37387 0.931129 3
v 3.37387 0.931129 2
v 3.31215 1.13123 3
v 3.31215 1.13123 2
v 3.23856 1.32729 3
v 3.23856 1.32729 2
v 3.15339 1.51859 3
v 3.15339 1.51859 2
v 3.05693 1.70446 3
v 3.05693 1.70446 2
v 2.94952 1.88423 3
v 2.94952 1.88423 2
v 2.83156 2.05725 3
v 2.83156 2.05725 2
v 2.70346 2.2229 3
v 2.70346 2.2229 2
v 2.56568 2.3806 3
v 2.56568 2.3806 2
v 2.41872 2.52978 3
v 2.41872 2.52978 2
v 2.2631 2.6699 3
v 2.2631 2.6699 2
v 2.09938 2.80047 3
v 2.09938 2.80047 2
v 1.92814 2.92101 3
v 1.92814 2.92101 2
v 1.75 3.03109 3
v 1.75 3.03109 2
v 1.5656 3.13032 3
v 1.5656 3.13032 2
v 1.37559 3.21835 3
v 1.37559 3.21835 2
v 1.18066 3.29485 3
v 1.18066 3.29485 2
v 0.981496 3.35956 3
v 0.981496 3.35956 2
v 0.778823 3.41225 3
v 0.778823 3.41225 2
v 0.573363 3.45272 3
v 0.573363 3.45272 2
v 0.36585 3.48083 3
v 0.36585 3.48083 2
v 0.157027 3.49648 3
v 0.157027 3.49648 2
v -0.0523579 3.49961 3
v -0.0523579 3.49961 2
v -0.261555 3.49021 3
v -0.261555 3.49021 2
v -0.469816 3.46832 3
v -0.469816 3.46832 2
v -0.676396 3.43402 3
v -0.676396 3.43402 2
v -0.880554 3.38742 3
v -0.880554 3.38742 2
v -1.08156 3.3287 3
v -1.08156 3.3287 2
v -1.27869 3.25806 3
v -1.27869 3.25806 2
v -1.47125 3.17576 3
v -1.47125 3.17576 2
v -1.65854 3.08208 3
v -1.65854 3.08208 2
v -1.83989 2.97738 3
v -1.83989 2.97738 2
v -2.01466 2.86202 3
v -2.01466 2.86202 2
v -2.18221 2.73641 3
v -2.18221 2.73641 2
v -2.34196 2.60101 3
v -2.34196 2.60101 2
v -2.49332 2.45629 3
v -2.49332 2.45629 2
v -2.63575 2.30279 3
v -2.63575 2.30279 2
v -2.76875 2.14104 3
v -2.76875 2.14104 2
v -2.89184 1.97162 3
v -2.89184 1.97162 2
v -3.00457 1.79515 3
v -3.00457 1.79515 2
v -3.10655 1.61225 3
v -3.10655 1.61225 2
v -3.19741 1.42358 3
v -3.19741 1.42358 2
v -3.27682 1.22981 3
v -3.27682 1.22981 2
v -3.34451 1.03164 3
v -3.34451 1.03164 2
v -3.40021 0.829781 3
v -3.40021 0.829781 2
v -3.44375 0.624949 3
v -3.44375 0.624949 2
v -3.47496 0.41788 3
v -3.47496 0.41788 2
# </points>

# <edges count="210">
l 1 2
l 3 4
l 5 1
l 4 6
l 7 5
l 6 8
l 9 7
l 8 10
l 11 9
l 10 12
l 13 11
l 12 14
l 15 13
l 14 16
l 17 15
l 16 18
l 19 17
l 18 20
l 21 19
l 20 22
l 23 21
l 22 24
l 25 23
l 24 26
l 27 25
l 26 28
l 29 27
l 28 30
l 31 29
l 30 32
l 33 31
l 32 34
l 35 33
l 34 36
l 37 35
l 36 38
l 39 37
l 38 40
l 41 39
l 40 42
l 43 41
l 42 44
l 45 43
l 44 46
l 47 45
l 46 48
l 49 47
l 48 50
l 51 49
l 50 52
l 53 51
l 52 54
l 55 53
l 54 56
l 57 55
l 56 58
l 59 57
l 58 60
l 61 59
l 60 62
l 63 61
l 62 64
l 65 63
l 64 66
l 67 65
l 66 68
l 69 67
l 68 70
l 71 69
l 70 72
l 73 71
l 72 74
l 75 73
l 74 76
l 77 75
l 76 78
l 79 77
l 78 80
l 81 79
l 80 82
l 83 81
l 82 84
l 85 83
l 84 86
l 87 85
l 86 88
l 89 87
l 88 90
l 91 89
l 90 92
l 93 91
l 92 94
l 95 93
l 94 96
l 97 95
l 96 98
l 99 97
l 98 100
l 101 99
l 100 102
l 103 101
l 102 104
l 105 103
l 104 106
l 107 105
l 106 108
l 109 107
l 108 110
l 111 109
l 110 112
l 113 111
l 112 114
l 115 113
l 114 116
l 117 115
l 116 118
l 119 117
l 118 120
l 121 119
l 120 122
l 123 121
l 122 124
l 125 123
l 124 126
l 127 125
l 126 128
l 129 127
l 128 130
l 131 129
l 130 132
l 133 131
l 132 134
l 135 133
l 134 136
l 137 135
l 136 138
l 139 137
l 138 140
l 141 139
l 140 142
l 143 141
l 142 144
l 145 143
l 144 146
l 147 145
l 146 148
l 149 147
l 148 150
l 151 149
l 150 152
l 153 151
l 152 154
l 155 153
l 154 156
l 157 155
l 156 158
l 159 157
l 158 160
l 161 159
l 160 162
l 163 161
l 162 164
l 165 163
l 164 166
l 167 165
l 166 168
l 169 167
l 168 170
l 171 169
l 170 172
l 173 171
l 172 174
l 175 173
l 174 176
l 177 175
l 176 178
l 179 177
l 178 180
l 181 179
l 180 182
l 183 181
l 182 184
l 185 183
l 184 186
l 187 185
l 186 188
l 189 187
l 188 190
l 191 189
l 190 192
l 193 191
l 192 194
l 195 193
l 194 196
l 197 195
l 196 198
l 199 197
l 198 200
l 201 199
l 200 202
l 203 201
l 202 204
l 205 203
l 204 206
l 207 205
l 206 208
l 209 207
l 208 210
l 2 209
l 210 3
# </edges>
