# Wavefront OBJ file written 2026-05-16T14:02:14
o slag_edgeMesh

# points : 105
# lines  : 105

# <points count="105">
v 3.5 0 0
v 3.49374 -0.209314 0
v -3.49843 -0.104704 0
v -3.49843 0.104704 0
v 3.49374 0.209314 0
v -3.48591 0.313738 0
v 3.47496 0.41788 0
v -3.46091 0.521648 0
v 3.44375 0.624949 0
v -3.42352 0.727691 0
v 3.40021 0.829781 0
v -3.37387 0.931129 0
v 3.34451 1.03164 0
v 3.27682 1.22981 0
v 3.19741 1.42358 0
v 3.10655 1.61225 0
v 3.00457 1.79515 0
v -3.31215 1.13123 0
v 2.89184 1.97162 0
v 2.76875 2.14104 0
v 2.63575 2.30279 0
v 2.49332 2.45629 0
v 2.34196 2.60101 0
v 2.18221 2.73641 0
v 2.01466 2.86202 0
v 1.83989 2.97738 0
v 1.65854 3.08208 0
v 1.47125 3.17576 0
v 1.27869 3.25806 0
v 1.08156 3.3287 0
v 0.880554 3.38742 0
v 0.676396 3.43402 0
v 0.469816 3.46832 0
v 0.261555 3.49021 0
v 0.0523579 3.49961 0
v -0.157027 3.49648 0
v -0.36585 3.48083 0
v -0.573363 3.45272 0
v -0.778823 3.41225 0
v -0.981496 3.35956 0
v -1.18066 3.29485 0
v -1.37559 3.21835 0
v -1.5656 3.13032 0
v -1.75 3.03109 0
v -1.92814 2.92101 0
v -2.09938 2.80047 0
v -2.2631 2.6699 0
v -2.41872 2.52978 0
v -2.56568 2.3806 0
v -2.70346 2.2229 0
v -2.83156 2.05725 0
v -2.94952 1.88423 0
v -3.05693 1.70446 0
v -3.15339 1.51859 0
v -3.23856 1.32729 0
v -3.48591 -0.313738 0
v 3.47496 -0.41788 0
v -3.46091 -0.521648 0
v 3.44375 -0.624949 0
v -3.42352 -0.727691 0
v 3.40021 -0.829781 0
v -3.37387 -0.931129 0
v 3.34451 -1.03164 0
v -3.31215 -1.13123 0
v 3.27682 -1.22981 0
v -3.23856 -1.32729 0
v 3.19741 -1.42358 0
v -3.15339 -1.51859 0
v 3.10655 -1.61225 0
v -3.05693 -1.70446 0
v 3.00457 -1.79515 0
v -2.94952 -1.88423 0
v 2.89184 -1.97162 0
v -2.83156 -2.05725 0
v 2.76875 -2.14104 0
v -2.70346 -2.2229 0
v 2.63575 -2.30279 0
v -2.56568 -2.3806 0
v 2.49332 -2.45629 0
v -2.41872 -2.52978 0
v 2.34196 -2.60101 0
v -2.2631 -2.6699 0
v 2.18221 -2.73641 0
v -2.09938 -2.80047 0
v 2.01466 -2.86202 0
v -1.92814 -2.92101 0
v 1.83989 -2.97738 0
v -1.75 -3.03109 0
v 1.65854 -3.08208 0
v -1.5656 -3.13032 0
v 1.47125 -3.17576 0
v -1.37559 -3.21835 0
v 1.27869 -3.25806 0
v -1.18066 -3.29485 0
v 1.08156 -3.3287 0
v -0.981496 -3.35956 0
v 0.880554 -3.38742 0
v -0.778823 -3.41225 0
v 0.676396 -3.43402 0
v -0.573363 -3.45272 0
v 0.469816 -3.46832 0
v -0.36585 -3.48083 0
v 0.261555 -3.49021 0
v -0.157027 -3.49648 0
v 0.0523579 -3.49961 0
# </points>

# <edges count="105">
l 1 2
l 3 4
l 5 1
l 4 6
l 7 5
l 6 8
l 9 7
l 8 10
l 11 9
l 10 12
l 13 11
l 14 13
l 15 14
l 16 15
l 17 16
l 12 18
l 19 17
l 20 19
l 21 20
l 22 21
l 23 22
l 24 23
l 25 24
l 26 25
l 27 26
l 28 27
l 29 28
l 30 29
l 31 30
l 32 31
l 33 32
l 34 33
l 35 34
l 36 35
l 37 36
l 38 37
l 39 38
l 40 39
l 41 40
l 42 41
l 43 42
l 44 43
l 45 44
l 46 45
l 47 46
l 48 47
l 49 48
l 50 49
l 51 50
l 52 51
l 53 52
l 54 53
l 18 55
l 55 54
l 56 3
l 2 57
l 58 56
l 57 59
l 60 58
l 59 61
l 62 60
l 61 63
l 64 62
l 63 65
l 66 64
l 65 67
l 68 66
l 67 69
l 70 68
l 69 71
l 72 70
l 71 73
l 74 72
l 73 75
l 76 74
l 75 77
l 78 76
l 77 79
l 80 78
l 79 81
l 82 80
l 81 83
l 84 82
l 83 85
l 86 84
l 85 87
l 88 86
l 87 89
l 90 88
l 89 91
l 92 90
l 91 93
l 94 92
l 93 95
l 96 94
l 95 97
l 98 96
l 97 99
l 100 98
l 99 101
l 102 100
l 101 103
l 104 102
l 103 105
l 105 104
# </edges>
