v 3.5 0 0
v 3.47008 -0.999552 0
l 1 2
v -3.49843 -0.104704 0
v -3.49843 0.895296 0
l 3 4
v 3.49374 0.209314 0
v 3.52365 -0.790238 0
l 5 6
v -3.49843 0.104704 0
v -3.43863 1.10291 0
l 7 8
v 3.47496 0.41788 0
v 3.5646 -0.578095 0
l 9 10
v -3.48591 0.313738 0
v -3.36652 1.30658 0
l 11 12
v 3.44375 0.624949 0
v 3.59279 -0.363882 0
l 13 14
v -3.46091 0.521648 0
v -3.28235 1.50558 0
l 15 16
v 3.40021 0.829781 0
v 3.60813 -0.148366 0
l 17 18
v -3.42352 0.727691 0
v -3.18643 1.69918 0
l 19 20
v 3.34451 1.03164 0
v 3.61054 0.0676796 0
l 21 22
v 3.27682 1.22981 0
v 3.60003 0.283485 0
l 23 24
v 3.19741 1.42358 0
v 3.57664 0.498274 0
l 25 26
v 3.10655 1.61225 0
v 3.54043 0.71128 0
l 27 28
v 3.00457 1.79515 0
v 3.49156 0.921739 0
l 29 30
v -3.37387 0.931129 0
v -3.07912 1.8867 0
l 31 32
v 2.89184 1.97162 0
v 3.43019 1.1289 0
l 33 34
v 2.76875 2.14104 0
v 3.35653 1.33202 0
l 35 36
v 2.63575 2.30279 0
v 3.27087 1.53037 0
l 37 38
v 2.49332 2.45629 0
v 3.17349 1.72324 0
l 39 40
v 2.34196 2.60101 0
v 3.06475 1.90994 0
l 41 42
v 2.18221 2.73641 0
v 2.94505 2.08981 0
l 43 44
v 2.01466 2.86202 0
v 2.81479 2.26219 0
l 45 46
v 1.83989 2.97738 0
v 2.67447 2.42649 0
l 47 48
v 1.65854 3.08208 0
v 2.52457 2.58208 0
l 49 50
v 1.47125 3.17576 0
v 2.36563 2.72844 0
l 51 52
v 1.27869 3.25806 0
v 2.19822 2.86503 0
l 53 54
v 1.08156 3.3287 0
v 2.02295 2.99137 0
l 55 56
v 0.880554 3.38742 0
v 1.84043 3.10699 0
l 57 58
v 0.676396 3.43402 0
v 1.65132 3.2115 0
l 59 60
v 0.469816 3.46832 0
v 1.45631 3.30451 0
l 61 62
v 0.261555 3.49021 0
v 1.25608 3.38569 0
l 63 64
v 0.0523579 3.49961 0
v 1.05135 3.45474 0
l 65 66
v -0.157027 3.49648 0
v 0.842861 3.51143 0
l 67 68
v -0.36585 3.48083 0
v 0.631354 3.55556 0
l 69 70
v -0.573363 3.45272 0
v 0.417587 3.58695 0
l 71 72
v -0.778823 3.41225 0
v 0.202325 3.6055 0
l 73 74
v -0.981496 3.35956 0
v -0.0136617 3.61115 0
l 75 76
v -1.18066 3.29485 0
v -0.229598 3.60387 0
l 77 78
v -1.37559 3.21835 0
v -0.444715 3.58369 0
l 79 80
v -1.5656 3.13032 0
v -0.658237 3.55068 0
l 81 82
v -1.75 3.03109 0
v -0.869404 3.50496 0
l 83 84
v -1.92814 2.92101 0
v -1.07746 3.44669 0
l 85 86
v -2.09938 2.80047 0
v -1.28166 3.37608 0
l 87 88
v -2.2631 2.6699 0
v -1.48127 3.29339 0
l 89 90
v -2.41872 2.52978 0
v -1.67558 3.19892 0
l 91 92
v -2.56568 2.3806 0
v -1.86388 3.09298 0
l 93 94
v -2.70346 2.2229 0
v -2.04552 2.97598 0
l 95 96
v -2.83156 2.05725 0
v -2.21984 2.84832 0
l 97 98
v -2.94952 1.88423 0
v -2.3862 2.71047 0
l 99 100
v -3.05693 1.70446 0
v -2.54403 2.56291 0
l 101 102
v -3.15339 1.51859 0
v -2.69275 2.40618 0
l 103 104
v -3.31215 1.13123 0
v -2.96077 2.06747 0
l 105 106
v -3.23856 1.32729 0
v -2.83183 2.24083 0
l 107 108
v -3.48591 -0.313738 0
v -3.54572 0.684472 0
l 109 110
v 3.49374 -0.209314 0
v 3.4041 -1.20529 0
l 111 112
v -3.46091 -0.521648 0
v -3.5803 0.471199 0
l 113 114
v 3.47496 -0.41788 0
v 3.32593 -1.40671 0
l 115 116
v -3.42352 -0.727691 0
v -3.60207 0.256239 0
l 117 118
v 3.44375 -0.624949 0
v 3.23584 -1.6031 0
l 119 120
v -3.37387 -0.931129 0
v -3.61095 0.0403605 0
l 121 122
v 3.40021 -0.829781 0
v 3.13418 -1.79374 0
l 123 124
v -3.31215 -1.13123 0
v -3.6069 -0.175661 0
l 125 126
v 3.34451 -1.03164 0
v 3.02129 -1.97797 0
l 127 128
v -3.23856 -1.32729 0
v -3.58994 -0.391055 0
l 129 130
v 3.27682 -1.22981 0
v 2.8976 -2.15512 0
l 131 132
v -3.15339 -1.51859 0
v -3.56013 -0.605048 0
l 133 134
v 3.19741 -1.42358 0
v 2.76353 -2.32455 0
l 135 136
v -3.05693 -1.70446 0
v -3.51757 -0.816874 0
l 137 138
v 3.10655 -1.61225 0
v 2.61956 -2.48566 0
l 139 140
v -2.94952 -1.88423 0
v -3.46243 -1.02578 0
l 141 142
v 3.00457 -1.79515 0
v 2.46622 -2.63787 0
l 143 144
v -2.83156 -2.05725 0
v -3.39488 -1.23101 0
l 145 146
v 2.89184 -1.97162 0
v 2.30405 -2.78064 0
l 147 148
v -2.70346 -2.2229 0
v -3.31518 -1.43183 0
l 149 150
v 2.76875 -2.14104 0
v 2.13363 -2.91345 0
l 151 152
v -2.56568 -2.3806 0
v -3.22362 -1.62753 0
l 153 154
v 2.63575 -2.30279 0
v 1.95558 -3.03584 0
l 155 156
v -2.41872 -2.52978 0
v -3.12052 -1.81741 0
l 157 158
v 2.49332 -2.45629 0
v 1.77052 -3.14736 0
l 159 160
v -2.2631 -2.6699 0
v -3.00624 -2.00077 0
l 161 162
v 2.34196 -2.60101 0
v 1.57913 -3.2476 0
l 163 164
v -2.09938 -2.80047 0
v -2.88121 -2.17698 0
l 165 166
v 2.18221 -2.73641 0
v 1.38208 -3.33623 0
l 167 168
v -1.92814 -2.92101 0
v -2.74586 -2.34539 0
l 169 170
v 2.01466 -2.86202 0
v 1.18009 -3.41291 0
l 171 172
v -1.75 -3.03109 0
v -2.60068 -2.5054 0
l 173 174
v 1.83989 -2.97738 0
v 0.973867 -3.47738 0
l 175 176
v -1.5656 -3.13032 0
v -2.44619 -2.65645 0
l 177 178
v 1.65854 -3.08208 0
v 0.764163 -3.5294 0
l 179 180
v -1.37559 -3.21835 0
v -2.28295 -2.79799 0
l 181 182
v 1.47125 -3.17576 0
v 0.551723 -3.56878 0
l 183 184
v -1.18066 -3.29485 0
v -2.11153 -2.92951 0
l 185 186
v 1.27869 -3.25806 0
v 0.337307 -3.59539 0
l 187 188
v -0.981496 -3.35956 0
v -1.93255 -3.05055 0
l 189 190
v 1.08156 -3.3287 0
v 0.121684 -3.60913 0
l 191 192
v -0.778823 -3.41225 0
v -1.74666 -3.16066 0
l 193 194
v 0.880554 -3.38742 0
v -0.0943749 -3.60994 0
l 195 196
v -0.573363 -3.45272 0
v -1.55451 -3.25946 0
l 197 198
v 0.676396 -3.43402 0
v -0.310095 -3.59784 0
l 199 200
v -0.36585 -3.48083 0
v -1.3568 -3.34659 0
l 201 202
v 0.469816 -3.46832 0
v -0.524706 -3.57285 0
l 203 204
v -0.157027 -3.49648 0
v -1.15423 -3.42175 0
l 205 206
v 0.261555 -3.49021 0
v -0.737438 -3.53508 0
l 207 208
v 0.0523579 -3.49961 0
v -0.94753 -3.48465 0
l 209 210
