# Wavefront OBJ file written 2026-05-16T14:02:14
o wall_edgeMesh

# points : 276
# lines  : 276

# <points count="276">
v 3.5 0 100
v 3.44041 -0.643123 100
v 3.44041 0.643123 100
v 3.26365 1.26435 100
v 2.97576 1.84251 100
v 2.58653 2.35793 100
v 2.10922 2.79306 100
v 1.56008 3.13307 100
v 0.95782 3.36639 100
v 0.322939 3.48507 100
v -0.322939 3.48507 100
v -0.95782 3.36639 100
v -1.56008 3.13307 100
v -2.10922 2.79306 100
v -2.58653 2.35793 100
v -2.97576 1.84251 100
v -3.26365 1.26435 100
v -3.44041 0.643123 100
v -3.5 4.28626e-16 100
v -3.44041 -0.643123 100
v -3.26365 -1.26435 100
v -2.97576 -1.84251 100
v -2.58653 -2.35793 100
v -2.10922 -2.79306 100
v -1.56008 -3.13307 100
v -0.95782 -3.36639 100
v -0.322939 -3.48507 100
v 0.322939 -3.48507 100
v 0.95782 -3.36639 100
v 1.56008 -3.13307 100
v 2.10922 -2.79306 100
v 2.58653 -2.35793 100
v 2.97576 -1.84251 100
v 3.26365 -1.26435 100
v -3.5 -4.28626e-16 3
v -3.44041 -0.643123 3
v -3.44041 0.643123 3
v -3.26365 1.26435 3
v -2.97576 1.84251 3
v -2.58653 2.35793 3
v -2.10922 2.79306 3
v -1.56008 3.13307 3
v -0.95782 3.36639 3
v -0.322939 3.48507 3
v 0.322939 3.48507 3
v 0.95782 3.36639 3
v 1.56008 3.13307 3
v 2.10922 2.79306 3
v 2.58653 2.35793 3
v 2.97576 1.84251 3
v 3.26365 1.26435 3
v 3.44041 0.643123 3
v 3.5 0 3
v 3.44041 -0.643123 3
v 3.26365 -1.26435 3
v 2.97576 -1.84251 3
v 2.58653 -2.35793 3
v 2.10922 -2.79306 3
v 1.56008 -3.13307 3
v 0.95782 -3.36639 3
v 0.322939 -3.48507 3
v -0.322939 -3.48507 3
v -0.95782 -3.36639 3
v -1.56008 -3.13307 3
v -2.10922 -2.79306 3
v -2.58653 -2.35793 3
v -2.97576 -1.84251 3
v -3.26365 -1.26435 3
v -3.5 -4.28626e-16 2
v -3.49361 0.211325 2
v -3.49361 0.211325 0
v -3.5 -4.28626e-16 0
v -3.49361 -0.211325 2
v -3.49361 -0.211325 0
v -3.47448 -0.421878 2
v -3.47448 -0.421878 0
v -3.44267 -0.630893 2
v -3.44267 -0.630893 0
v -3.3983 -0.837605 2
v -3.3983 -0.837605 0
v -3.34152 -1.04126 2
v -3.34152 -1.04126 0
v -3.27256 -1.24112 2
v -3.27256 -1.24112 0
v -3.19165 -1.43644 2
v -3.19165 -1.43644 0
v -3.0991 -1.62653 2
v -3.0991 -1.62653 0
v -2.99523 -1.81068 2
v -2.99523 -1.81068 0
v -2.88044 -1.98823 2
v -2.88044 -1.98823 0
v -2.75514 -2.15852 2
v -2.75514 -2.15852 0
v -2.61979 -2.32093 2
v -2.61979 -2.32093 0
v -2.47487 -2.47487 2
v -2.47487 -2.47487 0
v -2.32093 -2.61979 2
v -2.32093 -2.61979 0
v -2.15852 -2.75514 2
v -2.15852 -2.75514 0
v -1.98823 -2.88044 2
v -1.98823 -2.88044 0
v -1.81068 -2.99523 2
v -1.81068 -2.99523 0
v -1.62653 -3.0991 2
v -1.62653 -3.0991 0
v -1.43644 -3.19165 2
v -1.43644 -3.19165 0
v -1.24112 -3.27256 2
v -1.24112 -3.27256 0
v -1.04126 -3.34152 2
v -1.04126 -3.34152 0
v -0.837605 -3.3983 2
v -0.837605 -3.3983 0
v -0.630893 -3.44267 2
v -0.630893 -3.44267 0
v -0.421878 -3.47448 2
v -0.421878 -3.47448 0
v -0.211325 -3.49361 2
v -0.211325 -3.49361 0
v 2.14313e-16 -3.5 2
v 2.14313e-16 -3.5 0
v 0.211325 -3.49361 2
v 0.211325 -3.49361 0
v 0.421878 -3.47448 2
v 0.421878 -3.47448 0
v 0.630893 -3.44267 2
v 0.630893 -3.44267 0
v 0.837605 -3.3983 2
v 0.837605 -3.3983 0
v 1.04126 -3.34152 2
v 1.04126 -3.34152 0
v 1.24112 -3.27256 2
v 1.24112 -3.27256 0
v 1.43644 -3.19165 2
v 1.43644 -3.19165 0
v 1.62653 -3.0991 2
v 1.62653 -3.0991 0
v 1.81068 -2.99523 2
v 1.81068 -2.99523 0
v 1.98823 -2.88044 2
v 1.98823 -2.88044 0
v 2.15852 -2.75514 2
v 2.15852 -2.75514 0
v 2.32093 -2.61979 2
v 2.32093 -2.61979 0
v 2.47487 -2.47487 2
v 2.47487 -2.47487 0
v 2.61979 -2.32093 2
v 2.61979 -2.32093 0
v 2.75514 -2.15852 2
v 2.75514 -2.15852 0
v 2.88044 -1.98823 2
v 2.88044 -1.98823 0
v 2.99523 -1.81068 2
v 2.99523 -1.81068 0
v 3.0991 -1.62653 2
v 3.0991 -1.62653 0
v 3.19165 -1.43644 2
v 3.19165 -1.43644 0
v 3.27256 -1.24112 2
v 3.27256 -1.24112 0
v 3.34152 -1.04126 2
v 3.34152 -1.04126 0
v 3.3983 -0.837605 2
v 3.3983 -0.837605 0
v 3.44267 -0.630893 2
v 3.44267 -0.630893 0
v 3.47448 -0.421878 2
v 3.47448 -0.421878 0
v 3.49361 -0.211325 2
v 3.49361 -0.211325 0
v 3.5 0 2
v 3.5 0 0
v 3.49361 0.211325 2
v 3.49361 0.211325 0
v 3.47448 0.421878 2
v 3.47448 0.421878 0
v 3.44267 0.630893 2
v 3.44267 0.630893 0
v 3.3983 0.837605 2
v 3.3983 0.837605 0
v 3.34152 1.04126 2
v 3.34152 1.04126 0
v 3.27256 1.24112 2
v 3.27256 1.24112 0
v 3.19165 1.43644 2
v 3.19165 1.43644 0
v 3.0991 1.62653 2
v 3.0991 1.62653 0
v 2.99523 1.81068 2
v 2.99523 1.81068 0
v 2.88044 1.98823 2
v 2.88044 1.98823 0
v 2.75514 2.15852 2
v 2.75514 2.15852 0
v 2.61979 2.32093 2
v 2.61979 2.32093 0
v 2.47487 2.47487 2
v 2.47487 2.47487 0
v 2.32093 2.61979 2
v 2.32093 2.61979 0
v 2.15852 2.75514 2
v 2.15852 2.75514 0
v 1.98823 2.88044 2
v 1.98823 2.88044 0
v 1.81068 2.99523 2
v 1.81068 2.99523 0
v 1.62653 3.0991 2
v 1.62653 3.0991 0
v 1.43644 3.19165 2
v 1.43644 3.19165 0
v 1.24112 3.27256 2
v 1.24112 3.27256 0
v 1.04126 3.34152 2
v 1.04126 3.34152 0
v 0.837605 3.3983 2
v 0.837605 3.3983 0
v 0.630893 3.44267 2
v 0.630893 3.44267 0
v 0.421878 3.47448 2
v 0.421878 3.47448 0
v 0.211325 3.49361 2
v 0.211325 3.49361 0
v 2.14313e-16 3.5 2
v -6.4294e-16 3.5 0
v -0.211325 3.49361 2
v -0.211325 3.49361 0
v -0.421878 3.47448 2
v -0.421878 3.47448 0
v -0.630893 3.44267 2
v -0.630893 3.44267 0
v -0.837605 3.3983 2
v -0.837605 3.3983 0
v -1.04126 3.34152 2
v -1.04126 3.34152 0
v -1.24112 3.27256 2
v -1.24112 3.27256 0
v -1.43644 3.19165 2
v -1.43644 3.19165 0
v -1.62653 3.0991 2
v -1.62653 3.0991 0
v -1.81068 2.99523 2
v -1.81068 2.99523 0
v -1.98823 2.88044 2
v -1.98823 2.88044 0
v -2.15852 2.75514 2
v -2.15852 2.75514 0
v -2.32093 2.61979 2
v -2.32093 2.61979 0
v -2.47487 2.47487 2
v -2.47487 2.47487 0
v -2.61979 2.32093 2
v -2.61979 2.32093 0
v -2.75514 2.15852 2
v -2.75514 2.15852 0
v -2.88044 1.98823 2
v -2.88044 1.98823 0
v -2.99523 1.81068 2
v -2.99523 1.81068 0
v -3.0991 1.62653 2
v -3.0991 1.62653 0
v -3.19165 1.43644 2
v -3.19165 1.43644 0
v -3.27256 1.24112 2
v -3.27256 1.24112 0
v -3.34152 1.04126 2
v -3.34152 1.04126 0
v -3.3983 0.837605 2
v -3.3983 0.837605 0
v -3.44267 0.630893 2
v -3.44267 0.630893 0
v -3.47448 0.421878 2
v -3.47448 0.421878 0
# </points>

# <edges count="276">
l 1 2
l 3 1
l 4 3
l 5 4
l 6 5
l 7 6
l 8 7
l 9 8
l 10 9
l 11 10
l 12 11
l 13 12
l 14 13
l 15 14
l 16 15
l 17 16
l 18 17
l 19 18
l 20 19
l 21 20
l 22 21
l 23 22
l 24 23
l 25 24
l 26 25
l 27 26
l 28 27
l 29 28
l 30 29
l 31 30
l 32 31
l 33 32
l 34 33
l 2 34
l 35 36
l 37 35
l 38 37
l 39 38
l 40 39
l 41 40
l 42 41
l 43 42
l 44 43
l 45 44
l 46 45
l 47 46
l 48 47
l 49 48
l 50 49
l 51 50
l 52 51
l 53 52
l 54 53
l 55 54
l 56 55
l 57 56
l 58 57
l 59 58
l 60 59
l 61 60
l 62 61
l 63 62
l 64 63
l 65 64
l 66 65
l 67 66
l 68 67
l 36 68
l 69 70
l 71 72
l 73 69
l 72 74
l 75 73
l 74 76
l 77 75
l 76 78
l 79 77
l 78 80
l 81 79
l 80 82
l 83 81
l 82 84
l 85 83
l 84 86
l 87 85
l 86 88
l 89 87
l 88 90
l 91 89
l 90 92
l 93 91
l 92 94
l 95 93
l 94 96
l 97 95
l 96 98
l 99 97
l 98 100
l 101 99
l 100 102
l 103 101
l 102 104
l 105 103
l 104 106
l 107 105
l 106 108
l 109 107
l 108 110
l 111 109
l 110 112
l 113 111
l 112 114
l 115 113
l 114 116
l 117 115
l 116 118
l 119 117
l 118 120
l 121 119
l 120 122
l 123 121
l 122 124
l 125 123
l 124 126
l 127 125
l 126 128
l 129 127
l 128 130
l 131 129
l 130 132
l 133 131
l 132 134
l 135 133
l 134 136
l 137 135
l 136 138
l 139 137
l 138 140
l 141 139
l 140 142
l 143 141
l 142 144
l 145 143
l 144 146
l 147 145
l 146 148
l 149 147
l 148 150
l 151 149
l 150 152
l 153 151
l 152 154
l 155 153
l 154 156
l 157 155
l 156 158
l 159 157
l 158 160
l 161 159
l 160 162
l 163 161
l 162 164
l 165 163
l 164 166
l 167 165
l 166 168
l 169 167
l 168 170
l 171 169
l 170 172
l 173 171
l 172 174
l 175 173
l 174 176
l 177 175
l 176 178
l 179 177
l 178 180
l 181 179
l 180 182
l 183 181
l 182 184
l 185 183
l 184 186
l 187 185
l 186 188
l 189 187
l 188 190
l 191 189
l 190 192
l 193 191
l 192 194
l 195 193
l 194 196
l 197 195
l 196 198
l 199 197
l 198 200
l 201 199
l 200 202
l 203 201
l 202 204
l 205 203
l 204 206
l 207 205
l 206 208
l 209 207
l 208 210
l 211 209
l 210 212
l 213 211
l 212 214
l 215 213
l 214 216
l 217 215
l 216 218
l 219 217
l 218 220
l 221 219
l 220 222
l 223 221
l 222 224
l 225 223
l 224 226
l 227 225
l 226 228
l 229 227
l 228 230
l 231 229
l 230 232
l 233 231
l 232 234
l 235 233
l 234 236
l 237 235
l 236 238
l 239 237
l 238 240
l 241 239
l 240 242
l 243 241
l 242 244
l 245 243
l 244 246
l 247 245
l 246 248
l 249 247
l 248 250
l 251 249
l 250 252
l 253 251
l 252 254
l 255 253
l 254 256
l 257 255
l 256 258
l 259 257
l 258 260
l 261 259
l 260 262
l 263 261
l 262 264
l 265 263
l 264 266
l 267 265
l 266 268
l 269 267
l 268 270
l 271 269
l 270 272
l 273 271
l 272 274
l 275 273
l 274 276
l 70 275
l 276 71
# </edges>
