v 3.5 0 100
v 3.44041 -0.643123 100
l 1 2
v 3.44041 0.643123 100
v 3.5 0 100
l 3 4
v 3.26365 1.26435 100
v 3.44041 0.643123 100
l 5 6
v 2.97576 1.84251 100
v 3.26365 1.26435 100
l 7 8
v 2.58653 2.35793 100
v 2.97576 1.84251 100
l 9 10
v 2.10922 2.79306 100
v 2.58653 2.35793 100
l 11 12
v 1.56008 3.13307 100
v 2.10922 2.79306 100
l 13 14
v 0.95782 3.36639 100
v 1.56008 3.13307 100
l 15 16
v 0.322939 3.48507 100
v 0.95782 3.36639 100
l 17 18
v -0.322939 3.48507 100
v 0.322939 3.48507 100
l 19 20
v -0.95782 3.36639 100
v -0.322939 3.48507 100
l 21 22
v -1.56008 3.13307 100
v -0.95782 3.36639 100
l 23 24
v -2.10922 2.79306 100
v -1.56008 3.13307 100
l 25 26
v -2.58653 2.35793 100
v -2.10922 2.79306 100
l 27 28
v -2.97576 1.84251 100
v -2.58653 2.35793 100
l 29 30
v -3.26365 1.26435 100
v -2.97576 1.84251 100
l 31 32
v -3.44041 0.643123 100
v -3.26365 1.26435 100
l 33 34
v -3.5 4.28626e-16 100
v -3.44041 0.643123 100
l 35 36
v -3.44041 -0.643123 100
v -3.5 4.28626e-16 100
l 37 38
v -3.26365 -1.26435 100
v -3.44041 -0.643123 100
l 39 40
v -2.97576 -1.84251 100
v -3.26365 -1.26435 100
l 41 42
v -2.58653 -2.35793 100
v -2.97576 -1.84251 100
l 43 44
v -2.10922 -2.79306 100
v -2.58653 -2.35793 100
l 45 46
v -1.56008 -3.13307 100
v -2.10922 -2.79306 100
l 47 48
v -0.95782 -3.36639 100
v -1.56008 -3.13307 100
l 49 50
v -0.322939 -3.48507 100
v -0.95782 -3.36639 100
l 51 52
v 0.322939 -3.48507 100
v -0.322939 -3.48507 100
l 53 54
v 0.95782 -3.36639 100
v 0.322939 -3.48507 100
l 55 56
v 1.56008 -3.13307 100
v 0.95782 -3.36639 100
l 57 58
v 2.10922 -2.79306 100
v 1.56008 -3.13307 100
l 59 60
v 2.58653 -2.35793 100
v 2.10922 -2.79306 100
l 61 62
v 2.97576 -1.84251 100
v 2.58653 -2.35793 100
l 63 64
v 3.26365 -1.26435 100
v 2.97576 -1.84251 100
l 65 66
v 3.44041 -0.643123 100
v 3.26365 -1.26435 100
l 67 68
v -3.5 -4.28626e-16 3
v -3.44041 -0.643123 3
l 69 70
v -3.44041 0.643123 3
v -3.5 -4.28626e-16 3
l 71 72
v -3.26365 1.26435 3
v -3.44041 0.643123 3
l 73 74
v -2.97576 1.84251 3
v -3.26365 1.26435 3
l 75 76
v -2.58653 2.35793 3
v -2.97576 1.84251 3
l 77 78
v -2.10922 2.79306 3
v -2.58653 2.35793 3
l 79 80
v -1.56008 3.13307 3
v -2.10922 2.79306 3
l 81 82
v -0.95782 3.36639 3
v -1.56008 3.13307 3
l 83 84
v -0.322939 3.48507 3
v -0.95782 3.36639 3
l 85 86
v 0.322939 3.48507 3
v -0.322939 3.48507 3
l 87 88
v 0.95782 3.36639 3
v 0.322939 3.48507 3
l 89 90
v 1.56008 3.13307 3
v 0.95782 3.36639 3
l 91 92
v 2.10922 2.79306 3
v 1.56008 3.13307 3
l 93 94
v 2.58653 2.35793 3
v 2.10922 2.79306 3
l 95 96
v 2.97576 1.84251 3
v 2.58653 2.35793 3
l 97 98
v 3.26365 1.26435 3
v 2.97576 1.84251 3
l 99 100
v 3.44041 0.643123 3
v 3.26365 1.26435 3
l 101 102
v 3.5 0 3
v 3.44041 0.643123 3
l 103 104
v 3.44041 -0.643123 3
v 3.5 0 3
l 105 106
v 3.26365 -1.26435 3
v 3.44041 -0.643123 3
l 107 108
v 2.97576 -1.84251 3
v 3.26365 -1.26435 3
l 109 110
v 2.58653 -2.35793 3
v 2.97576 -1.84251 3
l 111 112
v 2.10922 -2.79306 3
v 2.58653 -2.35793 3
l 113 114
v 1.56008 -3.13307 3
v 2.10922 -2.79306 3
l 115 116
v 0.95782 -3.36639 3
v 1.56008 -3.13307 3
l 117 118
v 0.322939 -3.48507 3
v 0.95782 -3.36639 3
l 119 120
v -0.322939 -3.48507 3
v 0.322939 -3.48507 3
l 121 122
v -0.95782 -3.36639 3
v -0.322939 -3.48507 3
l 123 124
v -1.56008 -3.13307 3
v -0.95782 -3.36639 3
l 125 126
v -2.10922 -2.79306 3
v -1.56008 -3.13307 3
l 127 128
v -2.58653 -2.35793 3
v -2.10922 -2.79306 3
l 129 130
v -2.97576 -1.84251 3
v -2.58653 -2.35793 3
l 131 132
v -3.26365 -1.26435 3
v -2.97576 -1.84251 3
l 133 134
v -3.44041 -0.643123 3
v -3.26365 -1.26435 3
l 135 136
v -3.5 -4.28626e-16 2
v -3.49361 0.211325 2
l 137 138
v -3.49361 0.211325 0
v -3.5 -4.28626e-16 0
l 139 140
v -3.49361 -0.211325 2
v -3.5 -4.28626e-16 2
l 141 142
v -3.5 -4.28626e-16 0
v -3.49361 -0.211325 0
l 143 144
v -3.47448 -0.421878 2
v -3.49361 -0.211325 2
l 145 146
v -3.49361 -0.211325 0
v -3.47448 -0.421878 0
l 147 148
v -3.44267 -0.630893 2
v -3.47448 -0.421878 2
l 149 150
v -3.47448 -0.421878 0
v -3.44267 -0.630893 0
l 151 152
v -3.3983 -0.837605 2
v -3.44267 -0.630893 2
l 153 154
v -3.44267 -0.630893 0
v -3.3983 -0.837605 0
l 155 156
v -3.34152 -1.04126 2
v -3.3983 -0.837605 2
l 157 158
v -3.3983 -0.837605 0
v -3.34152 -1.04126 0
l 159 160
v -3.27256 -1.24112 2
v -3.34152 -1.04126 2
l 161 162
v -3.34152 -1.04126 0
v -3.27256 -1.24112 0
l 163 164
v -3.19165 -1.43644 2
v -3.27256 -1.24112 2
l 165 166
v -3.27256 -1.24112 0
v -3.19165 -1.43644 0
l 167 168
v -3.0991 -1.62653 2
v -3.19165 -1.43644 2
l 169 170
v -3.19165 -1.43644 0
v -3.0991 -1.62653 0
l 171 172
v -2.99523 -1.81068 2
v -3.0991 -1.62653 2
l 173 174
v -3.0991 -1.62653 0
v -2.99523 -1.81068 0
l 175 176
v -2.88044 -1.98823 2
v -2.99523 -1.81068 2
l 177 178
v -2.99523 -1.81068 0
v -2.88044 -1.98823 0
l 179 180
v -2.75514 -2.15852 2
v -2.88044 -1.98823 2
l 181 182
v -2.88044 -1.98823 0
v -2.75514 -2.15852 0
l 183 184
v -2.61979 -2.32093 2
v -2.75514 -2.15852 2
l 185 186
v -2.75514 -2.15852 0
v -2.61979 -2.32093 0
l 187 188
v -2.47487 -2.47487 2
v -2.61979 -2.32093 2
l 189 190
v -2.61979 -2.32093 0
v -2.47487 -2.47487 0
l 191 192
v -2.32093 -2.61979 2
v -2.47487 -2.47487 2
l 193 194
v -2.47487 -2.47487 0
v -2.32093 -2.61979 0
l 195 196
v -2.15852 -2.75514 2
v -2.32093 -2.61979 2
l 197 198
v -2.32093 -2.61979 0
v -2.15852 -2.75514 0
l 199 200
v -1.98823 -2.88044 2
v -2.15852 -2.75514 2
l 201 202
v -2.15852 -2.75514 0
v -1.98823 -2.88044 0
l 203 204
v -1.81068 -2.99523 2
v -1.98823 -2.88044 2
l 205 206
v -1.98823 -2.88044 0
v -1.81068 -2.99523 0
l 207 208
v -1.62653 -3.0991 2
v -1.81068 -2.99523 2
l 209 210
v -1.81068 -2.99523 0
v -1.62653 -3.0991 0
l 211 212
v -1.43644 -3.19165 2
v -1.62653 -3.0991 2
l 213 214
v -1.62653 -3.0991 0
v -1.43644 -3.19165 0
l 215 216
v -1.24112 -3.27256 2
v -1.43644 -3.19165 2
l 217 218
v -1.43644 -3.19165 0
v -1.24112 -3.27256 0
l 219 220
v -1.04126 -3.34152 2
v -1.24112 -3.27256 2
l 221 222
v -1.24112 -3.27256 0
v -1.04126 -3.34152 0
l 223 224
v -0.837605 -3.3983 2
v -1.04126 -3.34152 2
l 225 226
v -1.04126 -3.34152 0
v -0.837605 -3.3983 0
l 227 228
v -0.630893 -3.44267 2
v -0.837605 -3.3983 2
l 229 230
v -0.837605 -3.3983 0
v -0.630893 -3.44267 0
l 231 232
v -0.421878 -3.47448 2
v -0.630893 -3.44267 2
l 233 234
v -0.630893 -3.44267 0
v -0.421878 -3.47448 0
l 235 236
v -0.211325 -3.49361 2
v -0.421878 -3.47448 2
l 237 238
v -0.421878 -3.47448 0
v -0.211325 -3.49361 0
l 239 240
v 2.14313e-16 -3.5 2
v -0.211325 -3.49361 2
l 241 242
v -0.211325 -3.49361 0
v 2.14313e-16 -3.5 0
l 243 244
v 0.211325 -3.49361 2
v 2.14313e-16 -3.5 2
l 245 246
v 2.14313e-16 -3.5 0
v 0.211325 -3.49361 0
l 247 248
v 0.421878 -3.47448 2
v 0.211325 -3.49361 2
l 249 250
v 0.211325 -3.49361 0
v 0.421878 -3.47448 0
l 251 252
v 0.630893 -3.44267 2
v 0.421878 -3.47448 2
l 253 254
v 0.421878 -3.47448 0
v 0.630893 -3.44267 0
l 255 256
v 0.837605 -3.3983 2
v 0.630893 -3.44267 2
l 257 258
v 0.630893 -3.44267 0
v 0.837605 -3.3983 0
l 259 260
v 1.04126 -3.34152 2
v 0.837605 -3.3983 2
l 261 262
v 0.837605 -3.3983 0
v 1.04126 -3.34152 0
l 263 264
v 1.24112 -3.27256 2
v 1.04126 -3.34152 2
l 265 266
v 1.04126 -3.34152 0
v 1.24112 -3.27256 0
l 267 268
v 1.43644 -3.19165 2
v 1.24112 -3.27256 2
l 269 270
v 1.24112 -3.27256 0
v 1.43644 -3.19165 0
l 271 272
v 1.62653 -3.0991 2
v 1.43644 -3.19165 2
l 273 274
v 1.43644 -3.19165 0
v 1.62653 -3.0991 0
l 275 276
v 1.81068 -2.99523 2
v 1.62653 -3.0991 2
l 277 278
v 1.62653 -3.0991 0
v 1.81068 -2.99523 0
l 279 280
v 1.98823 -2.88044 2
v 1.81068 -2.99523 2
l 281 282
v 1.81068 -2.99523 0
v 1.98823 -2.88044 0
l 283 284
v 2.15852 -2.75514 2
v 1.98823 -2.88044 2
l 285 286
v 1.98823 -2.88044 0
v 2.15852 -2.75514 0
l 287 288
v 2.32093 -2.61979 2
v 2.15852 -2.75514 2
l 289 290
v 2.15852 -2.75514 0
v 2.32093 -2.61979 0
l 291 292
v 2.47487 -2.47487 2
v 2.32093 -2.61979 2
l 293 294
v 2.32093 -2.61979 0
v 2.47487 -2.47487 0
l 295 296
v 2.61979 -2.32093 2
v 2.47487 -2.47487 2
l 297 298
v 2.47487 -2.47487 0
v 2.61979 -2.32093 0
l 299 300
v 2.75514 -2.15852 2
v 2.61979 -2.32093 2
l 301 302
v 2.61979 -2.32093 0
v 2.75514 -2.15852 0
l 303 304
v 2.88044 -1.98823 2
v 2.75514 -2.15852 2
l 305 306
v 2.75514 -2.15852 0
v 2.88044 -1.98823 0
l 307 308
v 2.99523 -1.81068 2
v 2.88044 -1.98823 2
l 309 310
v 2.88044 -1.98823 0
v 2.99523 -1.81068 0
l 311 312
v 3.0991 -1.62653 2
v 2.99523 -1.81068 2
l 313 314
v 2.99523 -1.81068 0
v 3.0991 -1.62653 0
l 315 316
v 3.19165 -1.43644 2
v 3.0991 -1.62653 2
l 317 318
v 3.0991 -1.62653 0
v 3.19165 -1.43644 0
l 319 320
v 3.27256 -1.24112 2
v 3.19165 -1.43644 2
l 321 322
v 3.19165 -1.43644 0
v 3.27256 -1.24112 0
l 323 324
v 3.34152 -1.04126 2
v 3.27256 -1.24112 2
l 325 326
v 3.27256 -1.24112 0
v 3.34152 -1.04126 0
l 327 328
v 3.3983 -0.837605 2
v 3.34152 -1.04126 2
l 329 330
v 3.34152 -1.04126 0
v 3.3983 -0.837605 0
l 331 332
v 3.44267 -0.630893 2
v 3.3983 -0.837605 2
l 333 334
v 3.3983 -0.837605 0
v 3.44267 -0.630893 0
l 335 336
v 3.47448 -0.421878 2
v 3.44267 -0.630893 2
l 337 338
v 3.44267 -0.630893 0
v 3.47448 -0.421878 0
l 339 340
v 3.49361 -0.211325 2
v 3.47448 -0.421878 2
l 341 342
v 3.47448 -0.421878 0
v 3.49361 -0.211325 0
l 343 344
v 3.5 0 2
v 3.49361 -0.211325 2
l 345 346
v 3.49361 -0.211325 0
v 3.5 0 0
l 347 348
v 3.49361 0.211325 2
v 3.5 0 2
l 349 350
v 3.5 0 0
v 3.49361 0.211325 0
l 351 352
v 3.47448 0.421878 2
v 3.49361 0.211325 2
l 353 354
v 3.49361 0.211325 0
v 3.47448 0.421878 0
l 355 356
v 3.44267 0.630893 2
v 3.47448 0.421878 2
l 357 358
v 3.47448 0.421878 0
v 3.44267 0.630893 0
l 359 360
v 3.3983 0.837605 2
v 3.44267 0.630893 2
l 361 362
v 3.44267 0.630893 0
v 3.3983 0.837605 0
l 363 364
v 3.34152 1.04126 2
v 3.3983 0.837605 2
l 365 366
v 3.3983 0.837605 0
v 3.34152 1.04126 0
l 367 368
v 3.27256 1.24112 2
v 3.34152 1.04126 2
l 369 370
v 3.34152 1.04126 0
v 3.27256 1.24112 0
l 371 372
v 3.19165 1.43644 2
v 3.27256 1.24112 2
l 373 374
v 3.27256 1.24112 0
v 3.19165 1.43644 0
l 375 376
v 3.0991 1.62653 2
v 3.19165 1.43644 2
l 377 378
v 3.19165 1.43644 0
v 3.0991 1.62653 0
l 379 380
v 2.99523 1.81068 2
v 3.0991 1.62653 2
l 381 382
v 3.0991 1.62653 0
v 2.99523 1.81068 0
l 383 384
v 2.88044 1.98823 2
v 2.99523 1.81068 2
l 385 386
v 2.99523 1.81068 0
v 2.88044 1.98823 0
l 387 388
v 2.75514 2.15852 2
v 2.88044 1.98823 2
l 389 390
v 2.88044 1.98823 0
v 2.75514 2.15852 0
l 391 392
v 2.61979 2.32093 2
v 2.75514 2.15852 2
l 393 394
v 2.75514 2.15852 0
v 2.61979 2.32093 0
l 395 396
v 2.47487 2.47487 2
v 2.61979 2.32093 2
l 397 398
v 2.61979 2.32093 0
v 2.47487 2.47487 0
l 399 400
v 2.32093 2.61979 2
v 2.47487 2.47487 2
l 401 402
v 2.47487 2.47487 0
v 2.32093 2.61979 0
l 403 404
v 2.15852 2.75514 2
v 2.32093 2.61979 2
l 405 406
v 2.32093 2.61979 0
v 2.15852 2.75514 0
l 407 408
v 1.98823 2.88044 2
v 2.15852 2.75514 2
l 409 410
v 2.15852 2.75514 0
v 1.98823 2.88044 0
l 411 412
v 1.81068 2.99523 2
v 1.98823 2.88044 2
l 413 414
v 1.98823 2.88044 0
v 1.81068 2.99523 0
l 415 416
v 1.62653 3.0991 2
v 1.81068 2.99523 2
l 417 418
v 1.81068 2.99523 0
v 1.62653 3.0991 0
l 419 420
v 1.43644 3.19165 2
v 1.62653 3.0991 2
l 421 422
v 1.62653 3.0991 0
v 1.43644 3.19165 0
l 423 424
v 1.24112 3.27256 2
v 1.43644 3.19165 2
l 425 426
v 1.43644 3.19165 0
v 1.24112 3.27256 0
l 427 428
v 1.04126 3.34152 2
v 1.24112 3.27256 2
l 429 430
v 1.24112 3.27256 0
v 1.04126 3.34152 0
l 431 432
v 0.837605 3.3983 2
v 1.04126 3.34152 2
l 433 434
v 1.04126 3.34152 0
v 0.837605 3.3983 0
l 435 436
v 0.630893 3.44267 2
v 0.837605 3.3983 2
l 437 438
v 0.837605 3.3983 0
v 0.630893 3.44267 0
l 439 440
v 0.421878 3.47448 2
v 0.630893 3.44267 2
l 441 442
v 0.630893 3.44267 0
v 0.421878 3.47448 0
l 443 444
v 0.211325 3.49361 2
v 0.421878 3.47448 2
l 445 446
v 0.421878 3.47448 0
v 0.211325 3.49361 0
l 447 448
v 2.14313e-16 3.5 2
v 0.211325 3.49361 2
l 449 450
v 0.211325 3.49361 0
v -6.4294e-16 3.5 0
l 451 452
v -0.211325 3.49361 2
v 2.14313e-16 3.5 2
l 453 454
v -6.4294e-16 3.5 0
v -0.211325 3.49361 0
l 455 456
v -0.421878 3.47448 2
v -0.211325 3.49361 2
l 457 458
v -0.211325 3.49361 0
v -0.421878 3.47448 0
l 459 460
v -0.630893 3.44267 2
v -0.421878 3.47448 2
l 461 462
v -0.421878 3.47448 0
v -0.630893 3.44267 0
l 463 464
v -0.837605 3.3983 2
v -0.630893 3.44267 2
l 465 466
v -0.630893 3.44267 0
v -0.837605 3.3983 0
l 467 468
v -1.04126 3.34152 2
v -0.837605 3.3983 2
l 469 470
v -0.837605 3.3983 0
v -1.04126 3.34152 0
l 471 472
v -1.24112 3.27256 2
v -1.04126 3.34152 2
l 473 474
v -1.04126 3.34152 0
v -1.24112 3.27256 0
l 475 476
v -1.43644 3.19165 2
v -1.24112 3.27256 2
l 477 478
v -1.24112 3.27256 0
v -1.43644 3.19165 0
l 479 480
v -1.62653 3.0991 2
v -1.43644 3.19165 2
l 481 482
v -1.43644 3.19165 0
v -1.62653 3.0991 0
l 483 484
v -1.81068 2.99523 2
v -1.62653 3.0991 2
l 485 486
v -1.62653 3.0991 0
v -1.81068 2.99523 0
l 487 488
v -1.98823 2.88044 2
v -1.81068 2.99523 2
l 489 490
v -1.81068 2.99523 0
v -1.98823 2.88044 0
l 491 492
v -2.15852 2.75514 2
v -1.98823 2.88044 2
l 493 494
v -1.98823 2.88044 0
v -2.15852 2.75514 0
l 495 496
v -2.32093 2.61979 2
v -2.15852 2.75514 2
l 497 498
v -2.15852 2.75514 0
v -2.32093 2.61979 0
l 499 500
v -2.47487 2.47487 2
v -2.32093 2.61979 2
l 501 502
v -2.32093 2.61979 0
v -2.47487 2.47487 0
l 503 504
v -2.61979 2.32093 2
v -2.47487 2.47487 2
l 505 506
v -2.47487 2.47487 0
v -2.61979 2.32093 0
l 507 508
v -2.75514 2.15852 2
v -2.61979 2.32093 2
l 509 510
v -2.61979 2.32093 0
v -2.75514 2.15852 0
l 511 512
v -2.88044 1.98823 2
v -2.75514 2.15852 2
l 513 514
v -2.75514 2.15852 0
v -2.88044 1.98823 0
l 515 516
v -2.99523 1.81068 2
v -2.88044 1.98823 2
l 517 518
v -2.88044 1.98823 0
v -2.99523 1.81068 0
l 519 520
v -3.0991 1.62653 2
v -2.99523 1.81068 2
l 521 522
v -2.99523 1.81068 0
v -3.0991 1.62653 0
l 523 524
v -3.19165 1.43644 2
v -3.0991 1.62653 2
l 525 526
v -3.0991 1.62653 0
v -3.19165 1.43644 0
l 527 528
v -3.27256 1.24112 2
v -3.19165 1.43644 2
l 529 530
v -3.19165 1.43644 0
v -3.27256 1.24112 0
l 531 532
v -3.34152 1.04126 2
v -3.27256 1.24112 2
l 533 534
v -3.27256 1.24112 0
v -3.34152 1.04126 0
l 535 536
v -3.3983 0.837605 2
v -3.34152 1.04126 2
l 537 538
v -3.34152 1.04126 0
v -3.3983 0.837605 0
l 539 540
v -3.44267 0.630893 2
v -3.3983 0.837605 2
l 541 542
v -3.3983 0.837605 0
v -3.44267 0.630893 0
l 543 544
v -3.47448 0.421878 2
v -3.44267 0.630893 2
l 545 546
v -3.44267 0.630893 0
v -3.47448 0.421878 0
l 547 548
v -3.49361 0.211325 2
v -3.47448 0.421878 2
l 549 550
v -3.47448 0.421878 0
v -3.49361 0.211325 0
l 551 552
v 3.5 0 0
v 3.49374 -0.209314 0
l 553 554
v -3.49843 -0.104704 0
v -3.49843 0.104704 0
l 555 556
v 3.49374 0.209314 0
v 3.5 0 0
l 557 558
v -3.49843 0.104704 0
v -3.48591 0.313738 0
l 559 560
v 3.47496 0.41788 0
v 3.49374 0.209314 0
l 561 562
v -3.48591 0.313738 0
v -3.46091 0.521648 0
l 563 564
v 3.44375 0.624949 0
v 3.47496 0.41788 0
l 565 566
v -3.46091 0.521648 0
v -3.42352 0.727691 0
l 567 568
v 3.40021 0.829781 0
v 3.44375 0.624949 0
l 569 570
v -3.42352 0.727691 0
v -3.37387 0.931129 0
l 571 572
v 3.34451 1.03164 0
v 3.40021 0.829781 0
l 573 574
v 3.27682 1.22981 0
v 3.34451 1.03164 0
l 575 576
v 3.19741 1.42358 0
v 3.27682 1.22981 0
l 577 578
v 3.10655 1.61225 0
v 3.19741 1.42358 0
l 579 580
v 3.00457 1.79515 0
v 3.10655 1.61225 0
l 581 582
v -3.37387 0.931129 0
v -3.31215 1.13123 0
l 583 584
v 2.89184 1.97162 0
v 3.00457 1.79515 0
l 585 586
v 2.76875 2.14104 0
v 2.89184 1.97162 0
l 587 588
v 2.63575 2.30279 0
v 2.76875 2.14104 0
l 589 590
v 2.49332 2.45629 0
v 2.63575 2.30279 0
l 591 592
v 2.34196 2.60101 0
v 2.49332 2.45629 0
l 593 594
v 2.18221 2.73641 0
v 2.34196 2.60101 0
l 595 596
v 2.01466 2.86202 0
v 2.18221 2.73641 0
l 597 598
v 1.83989 2.97738 0
v 2.01466 2.86202 0
l 599 600
v 1.65854 3.08208 0
v 1.83989 2.97738 0
l 601 602
v 1.47125 3.17576 0
v 1.65854 3.08208 0
l 603 604
v 1.27869 3.25806 0
v 1.47125 3.17576 0
l 605 606
v 1.08156 3.3287 0
v 1.27869 3.25806 0
l 607 608
v 0.880554 3.38742 0
v 1.08156 3.3287 0
l 609 610
v 0.676396 3.43402 0
v 0.880554 3.38742 0
l 611 612
v 0.469816 3.46832 0
v 0.676396 3.43402 0
l 613 614
v 0.261555 3.49021 0
v 0.469816 3.46832 0
l 615 616
v 0.0523579 3.49961 0
v 0.261555 3.49021 0
l 617 618
v -0.157027 3.49648 0
v 0.0523579 3.49961 0
l 619 620
v -0.36585 3.48083 0
v -0.157027 3.49648 0
l 621 622
v -0.573363 3.45272 0
v -0.36585 3.48083 0
l 623 624
v -0.778823 3.41225 0
v -0.573363 3.45272 0
l 625 626
v -0.981496 3.35956 0
v -0.778823 3.41225 0
l 627 628
v -1.18066 3.29485 0
v -0.981496 3.35956 0
l 629 630
v -1.37559 3.21835 0
v -1.18066 3.29485 0
l 631 632
v -1.5656 3.13032 0
v -1.37559 3.21835 0
l 633 634
v -1.75 3.03109 0
v -1.5656 3.13032 0
l 635 636
v -1.92814 2.92101 0
v -1.75 3.03109 0
l 637 638
v -2.09938 2.80047 0
v -1.92814 2.92101 0
l 639 640
v -2.2631 2.6699 0
v -2.09938 2.80047 0
l 641 642
v -2.41872 2.52978 0
v -2.2631 2.6699 0
l 643 644
v -2.56568 2.3806 0
v -2.41872 2.52978 0
l 645 646
v -2.70346 2.2229 0
v -2.56568 2.3806 0
l 647 648
v -2.83156 2.05725 0
v -2.70346 2.2229 0
l 649 650
v -2.94952 1.88423 0
v -2.83156 2.05725 0
l 651 652
v -3.05693 1.70446 0
v -2.94952 1.88423 0
l 653 654
v -3.15339 1.51859 0
v -3.05693 1.70446 0
l 655 656
v -3.31215 1.13123 0
v -3.23856 1.32729 0
l 657 658
v -3.23856 1.32729 0
v -3.15339 1.51859 0
l 659 660
v -3.48591 -0.313738 0
v -3.49843 -0.104704 0
l 661 662
v 3.49374 -0.209314 0
v 3.47496 -0.41788 0
l 663 664
v -3.46091 -0.521648 0
v -3.48591 -0.313738 0
l 665 666
v 3.47496 -0.41788 0
v 3.44375 -0.624949 0
l 667 668
v -3.42352 -0.727691 0
v -3.46091 -0.521648 0
l 669 670
v 3.44375 -0.624949 0
v 3.40021 -0.829781 0
l 671 672
v -3.37387 -0.931129 0
v -3.42352 -0.727691 0
l 673 674
v 3.40021 -0.829781 0
v 3.34451 -1.03164 0
l 675 676
v -3.31215 -1.13123 0
v -3.37387 -0.931129 0
l 677 678
v 3.34451 -1.03164 0
v 3.27682 -1.22981 0
l 679 680
v -3.23856 -1.32729 0
v -3.31215 -1.13123 0
l 681 682
v 3.27682 -1.22981 0
v 3.19741 -1.42358 0
l 683 684
v -3.15339 -1.51859 0
v -3.23856 -1.32729 0
l 685 686
v 3.19741 -1.42358 0
v 3.10655 -1.61225 0
l 687 688
v -3.05693 -1.70446 0
v -3.15339 -1.51859 0
l 689 690
v 3.10655 -1.61225 0
v 3.00457 -1.79515 0
l 691 692
v -2.94952 -1.88423 0
v -3.05693 -1.70446 0
l 693 694
v 3.00457 -1.79515 0
v 2.89184 -1.97162 0
l 695 696
v -2.83156 -2.05725 0
v -2.94952 -1.88423 0
l 697 698
v 2.89184 -1.97162 0
v 2.76875 -2.14104 0
l 699 700
v -2.70346 -2.2229 0
v -2.83156 -2.05725 0
l 701 702
v 2.76875 -2.14104 0
v 2.63575 -2.30279 0
l 703 704
v -2.56568 -2.3806 0
v -2.70346 -2.2229 0
l 705 706
v 2.63575 -2.30279 0
v 2.49332 -2.45629 0
l 707 708
v -2.41872 -2.52978 0
v -2.56568 -2.3806 0
l 709 710
v 2.49332 -2.45629 0
v 2.34196 -2.60101 0
l 711 712
v -2.2631 -2.6699 0
v -2.41872 -2.52978 0
l 713 714
v 2.34196 -2.60101 0
v 2.18221 -2.73641 0
l 715 716
v -2.09938 -2.80047 0
v -2.2631 -2.6699 0
l 717 718
v 2.18221 -2.73641 0
v 2.01466 -2.86202 0
l 719 720
v -1.92814 -2.92101 0
v -2.09938 -2.80047 0
l 721 722
v 2.01466 -2.86202 0
v 1.83989 -2.97738 0
l 723 724
v -1.75 -3.03109 0
v -1.92814 -2.92101 0
l 725 726
v 1.83989 -2.97738 0
v 1.65854 -3.08208 0
l 727 728
v -1.5656 -3.13032 0
v -1.75 -3.03109 0
l 729 730
v 1.65854 -3.08208 0
v 1.47125 -3.17576 0
l 731 732
v -1.37559 -3.21835 0
v -1.5656 -3.13032 0
l 733 734
v 1.47125 -3.17576 0
v 1.27869 -3.25806 0
l 735 736
v -1.18066 -3.29485 0
v -1.37559 -3.21835 0
l 737 738
v 1.27869 -3.25806 0
v 1.08156 -3.3287 0
l 739 740
v -0.981496 -3.35956 0
v -1.18066 -3.29485 0
l 741 742
v 1.08156 -3.3287 0
v 0.880554 -3.38742 0
l 743 744
v -0.778823 -3.41225 0
v -0.981496 -3.35956 0
l 745 746
v 0.880554 -3.38742 0
v 0.676396 -3.43402 0
l 747 748
v -0.573363 -3.45272 0
v -0.778823 -3.41225 0
l 749 750
v 0.676396 -3.43402 0
v 0.469816 -3.46832 0
l 751 752
v -0.36585 -3.48083 0
v -0.573363 -3.45272 0
l 753 754
v 0.469816 -3.46832 0
v 0.261555 -3.49021 0
l 755 756
v -0.157027 -3.49648 0
v -0.36585 -3.48083 0
l 757 758
v 0.261555 -3.49021 0
v 0.0523579 -3.49961 0
l 759 760
v 0.0523579 -3.49961 0
v -0.157027 -3.49648 0
l 761 762
