v -3.5 -4.28626e-16 3
v -3.49374 0.209314 3
l 1 2
v -3.49374 0.209314 2
v -3.5 -4.28626e-16 2
l 3 4
v -3.49374 -0.209314 3
v -3.5 -4.28626e-16 3
l 5 6
v -3.5 -4.28626e-16 2
v -3.49374 -0.209314 2
l 7 8
v -3.47496 -0.41788 3
v -3.49374 -0.209314 3
l 9 10
v -3.49374 -0.209314 2
v -3.47496 -0.41788 2
l 11 12
v -3.44375 -0.624949 3
v -3.47496 -0.41788 3
l 13 14
v -3.47496 -0.41788 2
v -3.44375 -0.624949 2
l 15 16
v -3.40021 -0.829781 3
v -3.44375 -0.624949 3
l 17 18
v -3.44375 -0.624949 2
v -3.40021 -0.829781 2
l 19 20
v -3.34451 -1.03164 3
v -3.40021 -0.829781 3
l 21 22
v -3.40021 -0.829781 2
v -3.34451 -1.03164 2
l 23 24
v -3.27682 -1.22981 3
v -3.34451 -1.03164 3
l 25 26
v -3.34451 -1.03164 2
v -3.27682 -1.22981 2
l 27 28
v -3.19741 -1.42358 3
v -3.27682 -1.22981 3
l 29 30
v -3.27682 -1.22981 2
v -3.19741 -1.42358 2
l 31 32
v -3.10655 -1.61225 3
v -3.19741 -1.42358 3
l 33 34
v -3.19741 -1.42358 2
v -3.10655 -1.61225 2
l 35 36
v -3.00457 -1.79515 3
v -3.10655 -1.61225 3
l 37 38
v -3.10655 -1.61225 2
v -3.00457 -1.79515 2
l 39 40
v -2.89184 -1.97162 3
v -3.00457 -1.79515 3
l 41 42
v -3.00457 -1.79515 2
v -2.89184 -1.97162 2
l 43 44
v -2.76875 -2.14104 3
v -2.89184 -1.97162 3
l 45 46
v -2.89184 -1.97162 2
v -2.76875 -2.14104 2
l 47 48
v -2.63575 -2.30279 3
v -2.76875 -2.14104 3
l 49 50
v -2.76875 -2.14104 2
v -2.63575 -2.30279 2
l 51 52
v -2.49332 -2.45629 3
v -2.63575 -2.30279 3
l 53 54
v -2.63575 -2.30279 2
v -2.49332 -2.45629 2
l 55 56
v -2.34196 -2.60101 3
v -2.49332 -2.45629 3
l 57 58
v -2.49332 -2.45629 2
v -2.34196 -2.60101 2
l 59 60
v -2.18221 -2.73641 3
v -2.34196 -2.60101 3
l 61 62
v -2.34196 -2.60101 2
v -2.18221 -2.73641 2
l 63 64
v -2.01466 -2.86202 3
v -2.18221 -2.73641 3
l 65 66
v -2.18221 -2.73641 2
v -2.01466 -2.86202 2
l 67 68
v -1.83989 -2.97738 3
v -2.01466 -2.86202 3
l 69 70
v -2.01466 -2.86202 2
v -1.83989 -2.97738 2
l 71 72
v -1.65854 -3.08208 3
v -1.83989 -2.97738 3
l 73 74
v -1.83989 -2.97738 2
v -1.65854 -3.08208 2
l 75 76
v -1.47125 -3.17576 3
v -1.65854 -3.08208 3
l 77 78
v -1.65854 -3.08208 2
v -1.47125 -3.17576 2
l 79 80
v -1.27869 -3.25806 3
v -1.47125 -3.17576 3
l 81 82
v -1.47125 -3.17576 2
v -1.27869 -3.25806 2
l 83 84
v -1.08156 -3.3287 3
v -1.27869 -3.25806 3
l 85 86
v -1.27869 -3.25806 2
v -1.08156 -3.3287 2
l 87 88
v -0.880554 -3.38742 3
v -1.08156 -3.3287 3
l 89 90
v -1.08156 -3.3287 2
v -0.880554 -3.38742 2
l 91 92
v -0.676396 -3.43402 3
v -0.880554 -3.38742 3
l 93 94
v -0.880554 -3.38742 2
v -0.676396 -3.43402 2
l 95 96
v -0.469816 -3.46832 3
v -0.676396 -3.43402 3
l 97 98
v -0.676396 -3.43402 2
v -0.469816 -3.46832 2
l 99 100
v -0.261555 -3.49021 3
v -0.469816 -3.46832 3
l 101 102
v -0.469816 -3.46832 2
v -0.261555 -3.49021 2
l 103 104
v -0.0523579 -3.49961 3
v -0.261555 -3.49021 3
l 105 106
v -0.261555 -3.49021 2
v -0.0523579 -3.49961 2
l 107 108
v 0.157027 -3.49648 3
v -0.0523579 -3.49961 3
l 109 110
v -0.0523579 -3.49961 2
v 0.157027 -3.49648 2
l 111 112
v 0.36585 -3.48083 3
v 0.157027 -3.49648 3
l 113 114
v 0.157027 -3.49648 2
v 0.36585 -3.48083 2
l 115 116
v 0.573363 -3.45272 3
v 0.36585 -3.48083 3
l 117 118
v 0.36585 -3.48083 2
v 0.573363 -3.45272 2
l 119 120
v 0.778823 -3.41225 3
v 0.573363 -3.45272 3
l 121 122
v 0.573363 -3.45272 2
v 0.778823 -3.41225 2
l 123 124
v 0.981496 -3.35956 3
v 0.778823 -3.41225 3
l 125 126
v 0.778823 -3.41225 2
v 0.981496 -3.35956 2
l 127 128
v 1.18066 -3.29485 3
v 0.981496 -3.35956 3
l 129 130
v 0.981496 -3.35956 2
v 1.18066 -3.29485 2
l 131 132
v 1.37559 -3.21835 3
v 1.18066 -3.29485 3
l 133 134
v 1.18066 -3.29485 2
v 1.37559 -3.21835 2
l 135 136
v 1.5656 -3.13032 3
v 1.37559 -3.21835 3
l 137 138
v 1.37559 -3.21835 2
v 1.5656 -3.13032 2
l 139 140
v 1.75 -3.03109 3
v 1.5656 -3.13032 3
l 141 142
v 1.5656 -3.13032 2
v 1.75 -3.03109 2
l 143 144
v 1.92814 -2.92101 3
v 1.75 -3.03109 3
l 145 146
v 1.75 -3.03109 2
v 1.92814 -2.92101 2
l 147 148
v 2.09938 -2.80047 3
v 1.92814 -2.92101 3
l 149 150
v 1.92814 -2.92101 2
v 2.09938 -2.80047 2
l 151 152
v 2.2631 -2.6699 3
v 2.09938 -2.80047 3
l 153 154
v 2.09938 -2.80047 2
v 2.2631 -2.6699 2
l 155 156
v 2.41872 -2.52978 3
v 2.2631 -2.6699 3
l 157 158
v 2.2631 -2.6699 2
v 2.41872 -2.52978 2
l 159 160
v 2.56568 -2.3806 3
v 2.41872 -2.52978 3
l 161 162
v 2.41872 -2.52978 2
v 2.56568 -2.3806 2
l 163 164
v 2.70346 -2.2229 3
v 2.56568 -2.3806 3
l 165 166
v 2.56568 -2.3806 2
v 2.70346 -2.2229 2
l 167 168
v 2.83156 -2.05725 3
v 2.70346 -2.2229 3
l 169 170
v 2.70346 -2.2229 2
v 2.83156 -2.05725 2
l 171 172
v 2.94952 -1.88423 3
v 2.83156 -2.05725 3
l 173 174
v 2.83156 -2.05725 2
v 2.94952 -1.88423 2
l 175 176
v 3.05693 -1.70446 3
v 2.94952 -1.88423 3
l 177 178
v 2.94952 -1.88423 2
v 3.05693 -1.70446 2
l 179 180
v 3.15339 -1.51859 3
v 3.05693 -1.70446 3
l 181 182
v 3.05693 -1.70446 2
v 3.15339 -1.51859 2
l 183 184
v 3.23856 -1.32729 3
v 3.15339 -1.51859 3
l 185 186
v 3.15339 -1.51859 2
v 3.23856 -1.32729 2
l 187 188
v 3.31215 -1.13123 3
v 3.23856 -1.32729 3
l 189 190
v 3.23856 -1.32729 2
v 3.31215 -1.13123 2
l 191 192
v 3.37387 -0.931129 3
v 3.31215 -1.13123 3
l 193 194
v 3.31215 -1.13123 2
v 3.37387 -0.931129 2
l 195 196
v 3.42352 -0.727691 3
v 3.37387 -0.931129 3
l 197 198
v 3.37387 -0.931129 2
v 3.42352 -0.727691 2
l 199 200
v 3.46091 -0.521648 3
v 3.42352 -0.727691 3
l 201 202
v 3.42352 -0.727691 2
v 3.46091 -0.521648 2
l 203 204
v 3.48591 -0.313738 3
v 3.46091 -0.521648 3
l 205 206
v 3.46091 -0.521648 2
v 3.48591 -0.313738 2
l 207 208
v 3.49843 -0.104704 3
v 3.48591 -0.313738 3
l 209 210
v 3.48591 -0.313738 2
v 3.49843 -0.104704 2
l 211 212
v 3.49843 0.104704 3
v 3.49843 -0.104704 3
l 213 214
v 3.49843 -0.104704 2
v 3.49843 0.104704 2
l 215 216
v 3.48591 0.313738 3
v 3.49843 0.104704 3
l 217 218
v 3.49843 0.104704 2
v 3.48591 0.313738 2
l 219 220
v 3.46091 0.521648 3
v 3.48591 0.313738 3
l 221 222
v 3.48591 0.313738 2
v 3.46091 0.521648 2
l 223 224
v 3.42352 0.727691 3
v 3.46091 0.521648 3
l 225 226
v 3.46091 0.521648 2
v 3.42352 0.727691 2
l 227 228
v 3.37387 0.931129 3
v 3.42352 0.727691 3
l 229 230
v 3.42352 0.727691 2
v 3.37387 0.931129 2
l 231 232
v 3.31215 1.13123 3
v 3.37387 0.931129 3
l 233 234
v 3.37387 0.931129 2
v 3.31215 1.13123 2
l 235 236
v 3.23856 1.32729 3
v 3.31215 1.13123 3
l 237 238
v 3.31215 1.13123 2
v 3.23856 1.32729 2
l 239 240
v 3.15339 1.51859 3
v 3.23856 1.32729 3
l 241 242
v 3.23856 1.32729 2
v 3.15339 1.51859 2
l 243 244
v 3.05693 1.70446 3
v 3.15339 1.51859 3
l 245 246
v 3.15339 1.51859 2
v 3.05693 1.70446 2
l 247 248
v 2.94952 1.88423 3
v 3.05693 1.70446 3
l 249 250
v 3.05693 1.70446 2
v 2.94952 1.88423 2
l 251 252
v 2.83156 2.05725 3
v 2.94952 1.88423 3
l 253 254
v 2.94952 1.88423 2
v 2.83156 2.05725 2
l 255 256
v 2.70346 2.2229 3
v 2.83156 2.05725 3
l 257 258
v 2.83156 2.05725 2
v 2.70346 2.2229 2
l 259 260
v 2.56568 2.3806 3
v 2.70346 2.2229 3
l 261 262
v 2.70346 2.2229 2
v 2.56568 2.3806 2
l 263 264
v 2.41872 2.52978 3
v 2.56568 2.3806 3
l 265 266
v 2.56568 2.3806 2
v 2.41872 2.52978 2
l 267 268
v 2.2631 2.6699 3
v 2.41872 2.52978 3
l 269 270
v 2.41872 2.52978 2
v 2.2631 2.6699 2
l 271 272
v 2.09938 2.80047 3
v 2.2631 2.6699 3
l 273 274
v 2.2631 2.6699 2
v 2.09938 2.80047 2
l 275 276
v 1.92814 2.92101 3
v 2.09938 2.80047 3
l 277 278
v 2.09938 2.80047 2
v 1.92814 2.92101 2
l 279 280
v 1.75 3.03109 3
v 1.92814 2.92101 3
l 281 282
v 1.92814 2.92101 2
v 1.75 3.03109 2
l 283 284
v 1.5656 3.13032 3
v 1.75 3.03109 3
l 285 286
v 1.75 3.03109 2
v 1.5656 3.13032 2
l 287 288
v 1.37559 3.21835 3
v 1.5656 3.13032 3
l 289 290
v 1.5656 3.13032 2
v 1.37559 3.21835 2
l 291 292
v 1.18066 3.29485 3
v 1.37559 3.21835 3
l 293 294
v 1.37559 3.21835 2
v 1.18066 3.29485 2
l 295 296
v 0.981496 3.35956 3
v 1.18066 3.29485 3
l 297 298
v 1.18066 3.29485 2
v 0.981496 3.35956 2
l 299 300
v 0.778823 3.41225 3
v 0.981496 3.35956 3
l 301 302
v 0.981496 3.35956 2
v 0.778823 3.41225 2
l 303 304
v 0.573363 3.45272 3
v 0.778823 3.41225 3
l 305 306
v 0.778823 3.41225 2
v 0.573363 3.45272 2
l 307 308
v 0.36585 3.48083 3
v 0.573363 3.45272 3
l 309 310
v 0.573363 3.45272 2
v 0.36585 3.48083 2
l 311 312
v 0.157027 3.49648 3
v 0.36585 3.48083 3
l 313 314
v 0.36585 3.48083 2
v 0.157027 3.49648 2
l 315 316
v -0.0523579 3.49961 3
v 0.157027 3.49648 3
l 317 318
v 0.157027 3.49648 2
v -0.0523579 3.49961 2
l 319 320
v -0.261555 3.49021 3
v -0.0523579 3.49961 3
l 321 322
v -0.0523579 3.49961 2
v -0.261555 3.49021 2
l 323 324
v -0.469816 3.46832 3
v -0.261555 3.49021 3
l 325 326
v -0.261555 3.49021 2
v -0.469816 3.46832 2
l 327 328
v -0.676396 3.43402 3
v -0.469816 3.46832 3
l 329 330
v -0.469816 3.46832 2
v -0.676396 3.43402 2
l 331 332
v -0.880554 3.38742 3
v -0.676396 3.43402 3
l 333 334
v -0.676396 3.43402 2
v -0.880554 3.38742 2
l 335 336
v -1.08156 3.3287 3
v -0.880554 3.38742 3
l 337 338
v -0.880554 3.38742 2
v -1.08156 3.3287 2
l 339 340
v -1.27869 3.25806 3
v -1.08156 3.3287 3
l 341 342
v -1.08156 3.3287 2
v -1.27869 3.25806 2
l 343 344
v -1.47125 3.17576 3
v -1.27869 3.25806 3
l 345 346
v -1.27869 3.25806 2
v -1.47125 3.17576 2
l 347 348
v -1.65854 3.08208 3
v -1.47125 3.17576 3
l 349 350
v -1.47125 3.17576 2
v -1.65854 3.08208 2
l 351 352
v -1.83989 2.97738 3
v -1.65854 3.08208 3
l 353 354
v -1.65854 3.08208 2
v -1.83989 2.97738 2
l 355 356
v -2.01466 2.86202 3
v -1.83989 2.97738 3
l 357 358
v -1.83989 2.97738 2
v -2.01466 2.86202 2
l 359 360
v -2.18221 2.73641 3
v -2.01466 2.86202 3
l 361 362
v -2.01466 2.86202 2
v -2.18221 2.73641 2
l 363 364
v -2.34196 2.60101 3
v -2.18221 2.73641 3
l 365 366
v -2.18221 2.73641 2
v -2.34196 2.60101 2
l 367 368
v -2.49332 2.45629 3
v -2.34196 2.60101 3
l 369 370
v -2.34196 2.60101 2
v -2.49332 2.45629 2
l 371 372
v -2.63575 2.30279 3
v -2.49332 2.45629 3
l 373 374
v -2.49332 2.45629 2
v -2.63575 2.30279 2
l 375 376
v -2.76875 2.14104 3
v -2.63575 2.30279 3
l 377 378
v -2.63575 2.30279 2
v -2.76875 2.14104 2
l 379 380
v -2.89184 1.97162 3
v -2.76875 2.14104 3
l 381 382
v -2.76875 2.14104 2
v -2.89184 1.97162 2
l 383 384
v -3.00457 1.79515 3
v -2.89184 1.97162 3
l 385 386
v -2.89184 1.97162 2
v -3.00457 1.79515 2
l 387 388
v -3.10655 1.61225 3
v -3.00457 1.79515 3
l 389 390
v -3.00457 1.79515 2
v -3.10655 1.61225 2
l 391 392
v -3.19741 1.42358 3
v -3.10655 1.61225 3
l 393 394
v -3.10655 1.61225 2
v -3.19741 1.42358 2
l 395 396
v -3.27682 1.22981 3
v -3.19741 1.42358 3
l 397 398
v -3.19741 1.42358 2
v -3.27682 1.22981 2
l 399 400
v -3.34451 1.03164 3
v -3.27682 1.22981 3
l 401 402
v -3.27682 1.22981 2
v -3.34451 1.03164 2
l 403 404
v -3.40021 0.829781 3
v -3.34451 1.03164 3
l 405 406
v -3.34451 1.03164 2
v -3.40021 0.829781 2
l 407 408
v -3.44375 0.624949 3
v -3.40021 0.829781 3
l 409 410
v -3.40021 0.829781 2
v -3.44375 0.624949 2
l 411 412
v -3.47496 0.41788 3
v -3.44375 0.624949 3
l 413 414
v -3.44375 0.624949 2
v -3.47496 0.41788 2
l 415 416
v -3.49374 0.209314 3
v -3.47496 0.41788 3
l 417 418
v -3.47496 0.41788 2
v -3.49374 0.209314 2
l 419 420
